<?xml version="1.0" encoding="UTF-8" standalone="no"?>
<svg
   id="Layer_4"
   width="134.1"
   height="32"
   version="1.1"
   sodipodi:docname="logo-monochrome.svg.2024_03_20_21_59_03.0.svg"
   xml:space="preserve"
   inkscape:version="1.3.2 (091e20e, 2023-11-25)"
   xmlns:inkscape="http://www.inkscape.org/namespaces/inkscape"
   xmlns:sodipodi="http://sodipodi.sourceforge.net/DTD/sodipodi-0.dtd"
   xmlns="http://www.w3.org/2000/svg"
   xmlns:svg="http://www.w3.org/2000/svg"><defs
     id="defs106"><inkscape:path-effect
       effect="roughen"
       id="path-effect908"
       is_visible="true"
       lpeversion="1"
       method="size"
       max_segment_size="0.4"
       segments="2"
       displace_x="1.4;1"
       displace_y="1.4;1"
       global_randomize="1;1"
       handles="along"
       shift_nodes="true"
       fixed_displacement="true"
       spray_tool_friendly="true" /><inkscape:path-effect
       effect="roughen"
       id="path-effect906"
       is_visible="true"
       lpeversion="1"
       method="size"
       max_segment_size="0.15"
       segments="2"
       displace_x="1;1"
       displace_y="1;1"
       global_randomize="1;2147483646"
       handles="along"
       shift_nodes="true"
       fixed_displacement="true"
       spray_tool_friendly="true" /><inkscape:path-effect
       effect="roughen"
       id="path-effect942"
       is_visible="true"
       lpeversion="1"
       method="size"
       max_segment_size="0.418214"
       segments="2"
       displace_x="0.3;1"
       displace_y="5;1"
       global_randomize="1;2147483646"
       handles="along"
       shift_nodes="true"
       fixed_displacement="true"
       spray_tool_friendly="true" /><inkscape:path-effect
       effect="skeletal"
       id="path-effect2104"
       is_visible="true"
       lpeversion="1"
       pattern="M 0,0 H 1"
       copytype="single_stretched"
       prop_scale="1"
       scale_y_rel="false"
       spacing="0"
       normal_offset="0"
       tang_offset="0"
       prop_units="false"
       vertical_pattern="false"
       hide_knot="false"
       fuse_tolerance="0" /><inkscape:path-effect
       effect="skeletal"
       id="path-effect2102"
       is_visible="true"
       lpeversion="1"
       pattern="M 0,0 H 1"
       copytype="single_stretched"
       prop_scale="1"
       scale_y_rel="false"
       spacing="0"
       normal_offset="0"
       tang_offset="0"
       prop_units="false"
       vertical_pattern="false"
       hide_knot="false"
       fuse_tolerance="0" /><inkscape:path-effect
       effect="envelope"
       id="path-effect2090"
       is_visible="true"
       lpeversion="1"
       yy="true"
       xx="true"
       bendpath1="m 107.89436,75.365196 h 14.9817"
       bendpath2="m 122.87606,75.365196 v 7.316923"
       bendpath3="m 107.89436,82.682119 h 14.9817"
       bendpath4="m 107.89436,75.365196 v 7.316923" /><marker
       style="overflow:visible"
       id="Arrow1Lstart"
       refX="0"
       refY="0"
       orient="auto"
       inkscape:stockid="Arrow1Lstart"
       inkscape:isstock="true"><path
         transform="matrix(0.8,0,0,0.8,10,0)"
         style="fill:#fa0000;fill-opacity:1;fill-rule:evenodd;stroke:#fa0000;stroke-width:1pt;stroke-opacity:1"
         d="M 0,0 5,-5 -12.5,0 5,5 Z"
         id="path878" /></marker></defs><sodipodi:namedview
     id="namedview104"
     pagecolor="#ffffff"
     bordercolor="#111111"
     borderopacity="1"
     inkscape:showpageshadow="0"
     inkscape:pageopacity="0"
     inkscape:pagecheckerboard="1"
     inkscape:deskcolor="#d1d1d1"
     showgrid="false"
     inkscape:zoom="5.6928445"
     inkscape:cx="60.163246"
     inkscape:cy="17.565911"
     inkscape:window-width="1512"
     inkscape:window-height="897"
     inkscape:window-x="0"
     inkscape:window-y="38"
     inkscape:window-maximized="0"
     inkscape:current-layer="XMLID_1_"
     inkscape:pageshadow="2"
     inkscape:lockguides="false"
     showguides="true"><sodipodi:guide
       position="15.481513,47.481513"
       orientation="1,0"
       id="guide1"
       inkscape:locked="false" /><sodipodi:guide
       position="28.241372,4.470895"
       orientation="0,-1"
       id="guide2"
       inkscape:locked="false" /></sodipodi:namedview><style
     id="style93">.st0{fill:#673ab7}</style><g
     id="XMLID_1_"
     transform="matrix(0.91617478,0,0,0.89905689,7.2619187,2.2833598)"><path
       fill="#a7a9ac"
       d="m 9.2426528,28.111912 h 9.8616532 c 0,0 0.206781,-1.445991 -0.361172,-1.552764 l 0.103389,-1.794033 c 0,0 0.784017,-0.29096 0.191523,-1.04054 0,0 0.712102,-0.646396 -0.08814,-1.235057 l 0.20134,-1.506662 c 0,0 0.624715,-0.421326 0.05665,-0.903649 l 0.232174,-1.311928 c 0,0 0.864039,-0.509071 0.180639,-1.070766 l 0.181067,-1.419462 c 0,0 0.516631,-0.428175 -0.02582,-0.856569 l 0.07169,-1.370207 c 0,0 0.702925,-0.530926 0.130493,-0.968996 l 0.08269,-1.542978 c 0,0 1.005307,-0.401537 0.257569,-0.857223 l -0.03457,-1.6599698 c 0,0 0.653737,-0.2408353 0.316999,-0.8032924 L 19.629137,7.810516 c 0,0 0.05687,-1.8408961 0.23815,-2.0171464 0.451224,-0.4379621 0.347408,-1.4310952 0.347408,-1.4310952 l -6.01573,-0.7765449 c 0,0 -0.386566,1.3656399 8.71e-4,1.6332227 0,0 -0.155671,1.9544096 -0.155671,1.9548448 l -1.315997,0.2944392 c 0,0 -0.284029,0.4282845 0.180853,0.6425901 l -0.103817,1.7406473 c 0,0 -0.593667,0.3743554 -0.10339,0.8566784 l -0.232196,1.552765 c 0,0 -0.74838,0.187775 -0.309212,0.803618 l -0.02604,1.499051 c 0,0 -0.929657,0.375007 -0.258209,0.990634 l -0.155244,1.365422 c 0,0 -0.593347,0.294547 -0.103391,0.8034 l -0.07757,1.392279 c 0,0 -0.722344,0.267583 -0.20614,0.829932 l -0.206353,1.767286 c 0,0 -0.702499,0.268453 -0.341328,1.098166 0,0 -0.568486,0.436004 -0.149803,0.96345 l -0.335882,2.168824 c -1.1019684,1.156445 -1.057795,2.168933 -1.057795,2.168933 z"
       id="path1"
       style="fill:#c62828;fill-opacity:1;stroke-width:0.107709" /><text
       xml:space="preserve"
       style="font-size:13.222px;fill:#c62828;fill-opacity:1;stroke-width:1.10184"
       x="35.55619"
       y="11.117537"
       id="text1"
       transform="scale(0.99061393,1.009475)"><tspan
         sodipodi:role="line"
         id="tspan1"
         style="font-style:normal;font-variant:normal;font-weight:normal;font-stretch:normal;font-family:'Product Sans';-inkscape-font-specification:'Product Sans';stroke-width:1.10184"
         x="35.55619"
         y="11.117537">GDG DevFest</tspan><tspan
         sodipodi:role="line"
         style="font-style:normal;font-variant:normal;font-weight:normal;font-stretch:normal;font-family:'Product Sans';-inkscape-font-specification:'Product Sans';stroke-width:1.10184"
         x="35.55619"
         y="27.699192"
         id="tspan2">Pisa 2024</tspan></text></g><g
     id="g3118"
     transform="matrix(0.21284172,0,0,0.21284172,6.4999999,3.1143466)"><g
       id="layer2"
       inkscape:label="Torre"
       style="display:inline;stroke:#c62828;stroke-opacity:1"
       transform="translate(-33.964433,-75.421584)"><g
         id="g940"
         style="stroke:#c62828;stroke-linecap:round;stroke-linejoin:round;stroke-opacity:1" /></g><g
       id="layer3"
       inkscape:label="logo GDG"
       style="display:inline;fill:#c62828;fill-opacity:1"
       transform="translate(-33.964433,-75.421584)"><g
         id="g1973"
         transform="translate(190.34559,48.77017)"
         style="fill:#c62828;fill-opacity:1;stroke:#fffefe;stroke-opacity:1"><g
           id="layer1-8"
           inkscape:label="guida"
           style="fill:#c62828;fill-opacity:1;stroke:#fffefe;stroke-opacity:1" /><g
           id="layer2-2"
           inkscape:label="GDG logo"
           style="display:inline;opacity:1;fill:#c62828;fill-opacity:1;stroke:#fffefe;stroke-opacity:1"><path
             id="path876"
             style="color:#000000;font-style:normal;font-variant:normal;font-weight:normal;font-stretch:normal;font-size:medium;line-height:normal;font-family:sans-serif;font-variant-ligatures:normal;font-variant-position:normal;font-variant-caps:normal;font-variant-numeric:normal;font-variant-alternates:normal;font-variant-east-asian:normal;font-feature-settings:normal;font-variation-settings:normal;text-indent:0;text-align:start;text-decoration:none;text-decoration-line:none;text-decoration-style:solid;text-decoration-color:#000000;letter-spacing:normal;word-spacing:normal;text-transform:none;writing-mode:lr-tb;direction:ltr;text-orientation:mixed;dominant-baseline:auto;baseline-shift:baseline;text-anchor:start;white-space:normal;shape-padding:0;shape-margin:0;inline-size:0;clip-rule:nonzero;display:inline;overflow:visible;visibility:visible;opacity:1;isolation:auto;mix-blend-mode:normal;color-interpolation:sRGB;color-interpolation-filters:linearRGB;solid-color:#000000;solid-opacity:1;vector-effect:none;fill:#c62828;fill-opacity:1;fill-rule:nonzero;stroke:none;stroke-width:3.77953;stroke-linecap:round;stroke-linejoin:miter;stroke-miterlimit:4;stroke-dasharray:none;stroke-dashoffset:0;stroke-opacity:1;color-rendering:auto;image-rendering:auto;shape-rendering:auto;text-rendering:auto;enable-background:accumulate;stop-color:#000000;stop-opacity:1"
             d="m 152.63086,146.25391 a 33.259843,33.259843 0 0 0 -16.58789,4.43554 L 32.703125,210.13672 a 33.259843,33.259843 0 0 1 0.111328,-0.002 33.259843,33.259843 0 0 1 17.119141,4.48046 l 53.996096,31.28711 65.28906,-37.56054 a 33.259843,33.259843 0 0 0 12.23828,-45.41211 33.259843,33.259843 0 0 0 -28.82617,-16.67578 z M 0.08789062,245.79102 A 33.259843,33.259843 0 0 0 4.4316406,264.76953 33.259843,33.259843 0 0 0 32.572266,281.4375 L 16.582031,272.17188 A 33.259843,33.259843 0 0 1 0.08789062,245.79102 Z"
             transform="matrix(0.26458333,0,0,0.26458333,-156.38159,26.651414)" /><path
             style="color:#000000;font-style:normal;font-variant:normal;font-weight:normal;font-stretch:normal;font-size:medium;line-height:normal;font-family:sans-serif;font-variant-ligatures:normal;font-variant-position:normal;font-variant-caps:normal;font-variant-numeric:normal;font-variant-alternates:normal;font-variant-east-asian:normal;font-feature-settings:normal;font-variation-settings:normal;text-indent:0;text-align:start;text-decoration:none;text-decoration-line:none;text-decoration-style:solid;text-decoration-color:#000000;letter-spacing:normal;word-spacing:normal;text-transform:none;writing-mode:lr-tb;direction:ltr;text-orientation:mixed;dominant-baseline:auto;baseline-shift:baseline;text-anchor:start;white-space:normal;shape-padding:0;shape-margin:0;inline-size:0;clip-rule:nonzero;display:inline;overflow:visible;visibility:visible;opacity:1;isolation:auto;mix-blend-mode:normal;color-interpolation:sRGB;color-interpolation-filters:linearRGB;solid-color:#000000;solid-opacity:1;vector-effect:none;fill:#c62828;fill-opacity:1;fill-rule:nonzero;stroke:none;stroke-linecap:round;stroke-linejoin:miter;stroke-miterlimit:4;stroke-dasharray:none;stroke-dashoffset:0;stroke-opacity:1;color-rendering:auto;image-rendering:auto;shape-rendering:auto;text-rendering:auto;enable-background:accumulate;stop-color:#000000;stop-opacity:1"
             d="m -147.69922,83.517578 a 8.8000002,8.8000002 0 0 0 -7.49609,4.388672 8.8000002,8.8000002 0 0 0 3.20117,12.025391 l 31.52734,18.267579 a 8.8000002,8.8000002 0 0 0 12.02539,-3.20313 8.8000002,8.8000002 0 0 0 -3.20117,-12.02539 l -31.52734,-18.267575 a 8.8000002,8.8000002 0 0 0 -4.5293,-1.185547 z"
             id="path1160" /><g
             id="g1023"
             style="fill:#c62828;fill-opacity:1"><g
               id="g1027"
               style="fill:#c62828;fill-opacity:1" /></g></g><g
           id="layer4"
           inkscape:label="Torre"
           style="display:inline;fill:#c62828;fill-opacity:1;stroke:#fffefe;stroke-opacity:1" /><g
           id="layer5"
           inkscape:label="Torre 2"
           style="display:inline;fill:#c62828;fill-opacity:1;stroke:#fffefe;stroke-opacity:1" /><g
           id="layer6"
           inkscape:label="Pesci"
           style="display:inline;fill:#c62828;fill-opacity:1;stroke:#fffefe;stroke-opacity:1" /></g><g
         id="g1019"
         transform="translate(1.1794606,-36.112065)"
         style="display:inline;fill:#c62828;fill-opacity:1"><path
           id="path876-4"
           style="color:#000000;font-style:normal;font-variant:normal;font-weight:normal;font-stretch:normal;font-size:medium;line-height:normal;font-family:sans-serif;font-variant-ligatures:normal;font-variant-position:normal;font-variant-caps:normal;font-variant-numeric:normal;font-variant-alternates:normal;font-variant-east-asian:normal;font-feature-settings:normal;font-variation-settings:normal;text-indent:0;text-align:start;text-decoration:none;text-decoration-line:none;text-decoration-style:solid;text-decoration-color:#000000;letter-spacing:normal;word-spacing:normal;text-transform:none;writing-mode:lr-tb;direction:ltr;text-orientation:mixed;dominant-baseline:auto;baseline-shift:baseline;text-anchor:start;white-space:normal;shape-padding:0;shape-margin:0;inline-size:0;clip-rule:nonzero;display:inline;overflow:visible;visibility:visible;isolation:auto;mix-blend-mode:normal;color-interpolation:sRGB;color-interpolation-filters:linearRGB;solid-color:#000000;solid-opacity:1;vector-effect:none;fill:#c62828;fill-opacity:1;fill-rule:nonzero;stroke:none;stroke-width:1;stroke-linecap:round;stroke-linejoin:miter;stroke-miterlimit:4;stroke-dasharray:none;stroke-dashoffset:0;stroke-opacity:1;color-rendering:auto;image-rendering:auto;shape-rendering:auto;text-rendering:auto;enable-background:accumulate;stop-color:#000000"
           d="m 134.43369,204.26719 a 8.8,8.8 0 0 0 4.38887,-1.17357 l 27.342,-15.72876 a 8.8,8.8 0 0 1 -0.0294,5.3e-4 8.8,8.8 0 0 1 -4.52944,-1.18545 l -14.28646,-8.27805 -17.27439,9.93789 a 8.8,8.8 0 0 0 -3.23805,12.01529 8.8,8.8 0 0 0 7.62692,4.41213 z m 40.36032,-26.33586 a 8.8,8.8 0 0 0 -1.14928,-5.0214 8.8,8.8 0 0 0 -7.44554,-4.41006 l 4.23075,2.45153 a 8.8,8.8 0 0 1 4.36407,6.97993 z" /><path
           style="color:#000000;font-style:normal;font-variant:normal;font-weight:normal;font-stretch:normal;font-size:medium;line-height:normal;font-family:sans-serif;font-variant-ligatures:normal;font-variant-position:normal;font-variant-caps:normal;font-variant-numeric:normal;font-variant-alternates:normal;font-variant-east-asian:normal;font-feature-settings:normal;font-variation-settings:normal;text-indent:0;text-align:start;text-decoration:none;text-decoration-line:none;text-decoration-style:solid;text-decoration-color:#000000;letter-spacing:normal;word-spacing:normal;text-transform:none;writing-mode:lr-tb;direction:ltr;text-orientation:mixed;dominant-baseline:auto;baseline-shift:baseline;text-anchor:start;white-space:normal;shape-padding:0;shape-margin:0;inline-size:0;clip-rule:nonzero;display:inline;overflow:visible;visibility:visible;isolation:auto;mix-blend-mode:normal;color-interpolation:sRGB;color-interpolation-filters:linearRGB;solid-color:#000000;solid-opacity:1;vector-effect:none;fill:#c62828;fill-opacity:1;fill-rule:nonzero;stroke:none;stroke-linecap:round;stroke-linejoin:miter;stroke-miterlimit:4;stroke-dasharray:none;stroke-dashoffset:0;stroke-opacity:1;color-rendering:auto;image-rendering:auto;shape-rendering:auto;text-rendering:auto;enable-background:accumulate;stop-color:#000000"
           d="m 166.1349,186.09737 a 8.8000002,8.8000002 0 0 0 7.49609,-4.38867 8.8000002,8.8000002 0 0 0 -3.20117,-12.02539 l -31.52734,-18.26758 a 8.8000002,8.8000002 0 0 0 -12.02539,3.20313 8.8000002,8.8000002 0 0 0 3.20117,12.02539 l 31.52734,18.26758 a 8.8000002,8.8000002 0 0 0 4.5293,1.18554 z"
           id="path1160-4" /></g></g><g
       id="layer7"
       inkscape:label="Pesce"
       transform="translate(-33.964433,-75.421584)"><g
         id="g2088"
         transform="rotate(12.867792,111.65074,70.159956)"
         inkscape:path-effect="#path-effect906"
         style="fill:none;fill-opacity:1;stroke:#c62828;stroke-opacity:1"><g
           id="g2096"
           style="fill:none;fill-opacity:1;stroke:#c62828;stroke-opacity:1"><g
             id="g2115"
             style="fill:none;fill-opacity:1;stroke:#c62828;stroke-opacity:1" /></g></g></g></g></svg>
