<?xml version="1.0" encoding="UTF-8" standalone="no"?>

<svg
   width="140mm"
   height="38mm"
   viewBox="0 0 140 38"
   version="1.1"
   id="svg5"
   inkscape:version="1.1.2 (b8e25be833, 2022-02-05)"
   sodipodi:docname="logo_con_scritta.svg"
   xmlns:inkscape="http://www.inkscape.org/namespaces/inkscape"
   xmlns:sodipodi="http://sodipodi.sourceforge.net/DTD/sodipodi-0.dtd"
   xmlns="http://www.w3.org/2000/svg"
   xmlns:svg="http://www.w3.org/2000/svg">
  <sodipodi:namedview
     id="namedview7"
     pagecolor="#b4dde2"
     bordercolor="#666666"
     borderopacity="1.0"
     inkscape:pageshadow="2"
     inkscape:pageopacity="0"
     inkscape:pagecheckerboard="0"
     inkscape:document-units="mm"
     showgrid="false"
     inkscape:zoom="0.81260735"
     inkscape:cx="43.071232"
     inkscape:cy="170.43902"
     inkscape:window-width="1536"
     inkscape:window-height="890"
     inkscape:window-x="-6"
     inkscape:window-y="-6"
     inkscape:window-maximized="1"
     inkscape:current-layer="XMLID_1_" />
  <defs
     id="defs2">
    <inkscape:path-effect
       effect="roughen"
       id="path-effect908"
       is_visible="true"
       lpeversion="1"
       method="size"
       max_segment_size="0.4"
       segments="2"
       displace_x="1.4;1"
       displace_y="1.4;1"
       global_randomize="1;1"
       handles="along"
       shift_nodes="true"
       fixed_displacement="true"
       spray_tool_friendly="true" />
    <inkscape:path-effect
       effect="roughen"
       id="path-effect906"
       is_visible="true"
       lpeversion="1"
       method="size"
       max_segment_size="0.15"
       segments="2"
       displace_x="1;1"
       displace_y="1;1"
       global_randomize="1;1307617237"
       handles="along"
       shift_nodes="true"
       fixed_displacement="true"
       spray_tool_friendly="true" />
    <inkscape:path-effect
       effect="roughen"
       id="path-effect942"
       is_visible="true"
       lpeversion="1"
       method="size"
       max_segment_size="0.418214"
       segments="2"
       displace_x="0.3;1"
       displace_y="5;1"
       global_randomize="1;2147483646"
       handles="along"
       shift_nodes="true"
       fixed_displacement="true"
       spray_tool_friendly="true" />
    <inkscape:path-effect
       effect="skeletal"
       id="path-effect2104"
       is_visible="true"
       lpeversion="1"
       pattern="M 0,0 H 1"
       copytype="single_stretched"
       prop_scale="1"
       scale_y_rel="false"
       spacing="0"
       normal_offset="0"
       tang_offset="0"
       prop_units="false"
       vertical_pattern="false"
       hide_knot="false"
       fuse_tolerance="0" />
    <inkscape:path-effect
       effect="skeletal"
       id="path-effect2102"
       is_visible="true"
       lpeversion="1"
       pattern="M 0,0 H 1"
       copytype="single_stretched"
       prop_scale="1"
       scale_y_rel="false"
       spacing="0"
       normal_offset="0"
       tang_offset="0"
       prop_units="false"
       vertical_pattern="false"
       hide_knot="false"
       fuse_tolerance="0" />
    <inkscape:path-effect
       effect="envelope"
       id="path-effect2090"
       is_visible="true"
       lpeversion="1"
       yy="true"
       xx="true"
       bendpath1="m 107.89436,75.365196 h 14.9817"
       bendpath2="m 122.87606,75.365196 v 7.316923"
       bendpath3="m 107.89436,82.682119 h 14.9817"
       bendpath4="m 107.89436,75.365196 v 7.316923" />
    <marker
       style="overflow:visible"
       id="Arrow1Lstart"
       refX="0"
       refY="0"
       orient="auto"
       inkscape:stockid="Arrow1Lstart"
       inkscape:isstock="true">
      <path
         transform="matrix(0.8,0,0,0.8,10,0)"
         style="fill:#fa0000;fill-opacity:1;fill-rule:evenodd;stroke:#fa0000;stroke-width:1pt;stroke-opacity:1"
         d="M 0,0 5,-5 -12.5,0 5,5 Z"
         id="path878" />
    </marker>
  </defs>
  <g
     inkscape:label="Livello 1"
     inkscape:groupmode="layer"
     id="layer1">
    <g
       id="g899"
       transform="matrix(1.1728703,0,0,1.1728703,-2.5931289,0.1813936)">
      <g
         id="XMLID_1_"
         transform="matrix(0.91617478,0,0,0.89905689,7.2619187,2.2833598)">
        <g
           id="text1"
           style="font-size:13.222px;fill:#ffffff;stroke-width:1.10184"
           transform="matrix(0.99061393,0,0,1.009475,5.9094276,0)"
           aria-label="GDG DevFest
Pisa 2024">
          <path
             style="font-family:'Product Sans';-inkscape-font-specification:'Product Sans';fill:#ffffff"
             d="m 45.618133,6.7674985 q 0,1.9833 -1.176758,3.160058 -1.3222,1.4015325 -3.477386,1.4015325 -2.062632,0 -3.490608,-1.4279765 -1.427977,-1.427976 -1.427977,-3.517052 0,-2.089076 1.427977,-3.517052 1.427976,-1.427976 3.490608,-1.427976 1.044538,0 1.970078,0.370216 0.92554,0.370216 1.52053,1.044538 l -0.872652,0.872652 q -0.436326,-0.52888 -1.137092,-0.819764 -0.687544,-0.304106 -1.480864,-0.304106 -1.546974,0 -2.617956,1.070982 -1.05776,1.084204 -1.05776,2.71051 0,1.626306 1.05776,2.71051 1.070982,1.0709825 2.617956,1.0709825 1.414754,0 2.353516,-0.7933205 0.938762,-0.79332 1.084204,-2.18163 h -3.43772 v -1.137092 h 4.588034 q 0.06611,0.370216 0.06611,0.713988 z m 1.480871,4.3500385 V 1.6505845 h 2.895618 q 2.168408,0 3.477386,1.308978 1.3222,1.308978 1.3222,3.424498 0,2.128742 -1.3222,3.43772 -1.308978,1.2957565 -3.477386,1.2957565 z m 1.216424,-8.3034165 v 7.13988 h 1.679194 q 1.65275,0 2.604734,-0.938762 0.951984,-0.951984 0.951984,-2.631178 0,-1.665972 -0.951984,-2.617956 -0.951984,-0.951984 -2.604734,-0.951984 z m 17.029937,3.953378 q 0,1.9833 -1.176758,3.160058 -1.3222,1.4015325 -3.477386,1.4015325 -2.062632,0 -3.490609,-1.4279765 -1.427976,-1.427976 -1.427976,-3.517052 0,-2.089076 1.427976,-3.517052 1.427977,-1.427976 3.490609,-1.427976 1.044538,0 1.970078,0.370216 0.92554,0.370216 1.52053,1.044538 l -0.872652,0.872652 q -0.436326,-0.52888 -1.137092,-0.819764 -0.687544,-0.304106 -1.480864,-0.304106 -1.546974,0 -2.617957,1.070982 -1.05776,1.084204 -1.05776,2.71051 0,1.626306 1.05776,2.71051 1.070983,1.0709825 2.617957,1.0709825 1.414754,0 2.353516,-0.7933205 0.938762,-0.79332 1.084204,-2.18163 h -3.43772 v -1.137092 h 4.588034 q 0.06611,0.370216 0.06611,0.713988 z m 4.389704,4.3500385 V 1.6505845 h 2.895618 q 2.168408,0 3.477386,1.308978 1.3222,1.308978 1.3222,3.424498 0,2.128742 -1.3222,3.43772 -1.308978,1.2957565 -3.477386,1.2957565 z m 1.216424,-8.3034165 v 7.13988 h 1.679194 q 1.65275,0 2.604734,-0.938762 0.951984,-0.951984 0.951984,-2.631178 0,-1.665972 -0.951984,-2.617956 -0.951984,-0.951984 -2.604734,-0.951984 z m 10.418944,8.5149685 q -1.427976,0 -2.353516,-0.978428 -0.92554,-0.9784285 -0.92554,-2.4725145 0,-1.480864 0.899096,-2.459292 0.899096,-0.99165 2.300628,-0.99165 1.441198,0 2.287406,0.938762 0.85943,0.92554 0.85943,2.604734 l -0.01322,0.13222 h -5.09047 q 0.02644,0.951984 0.634656,1.533752 0.608212,0.5817685 1.45442,0.5817685 1.163536,0 1.824636,-1.1635365 l 1.084204,0.52888 q -0.436326,0.8197645 -1.216424,1.2825345 -0.766876,0.46277 -1.745304,0.46277 z M 79.426803,7.0980485 h 3.715382 q -0.05289,-0.674322 -0.555324,-1.110648 -0.489214,-0.449548 -1.3222,-0.449548 -0.687544,0 -1.18998,0.423104 -0.489214,0.423104 -0.647878,1.137092 z M 88.56319,11.117537 H 87.346766 L 84.72881,4.6387565 h 1.3222 l 1.903968,5.02436 h 0.02644 l 1.930412,-5.02436 h 1.29576 z M 93.428876,7.0583825 V 11.117537 H 92.212452 V 1.6505845 h 5.526796 v 1.163536 h -4.310372 v 3.10717 h 3.887268 v 1.137092 z m 7.986074,4.2707065 q -1.427979,0 -2.353519,-0.978428 -0.92554,-0.9784285 -0.92554,-2.4725145 0,-1.480864 0.899096,-2.459292 0.899096,-0.99165 2.300623,-0.99165 1.4412,0 2.28741,0.938762 0.85943,0.92554 0.85943,2.604734 l -0.0132,0.13222 h -5.090471 q 0.02644,0.951984 0.634651,1.533752 0.60822,0.5817685 1.45442,0.5817685 1.16354,0 1.82464,-1.1635365 l 1.0842,0.52888 q -0.43632,0.8197645 -1.21642,1.2825345 -0.76688,0.46277 -1.7453,0.46277 z M 99.471313,7.0980485 h 3.715377 q -0.0529,-0.674322 -0.55532,-1.110648 -0.48921,-0.449548 -1.3222,-0.449548 -0.68754,0 -1.18998,0.423104 -0.489213,0.423104 -0.647877,1.137092 z m 11.146127,2.221296 q 0,0.8462085 -0.74044,1.4279765 -0.74043,0.581768 -1.8643,0.581768 -0.97843,0 -1.71886,-0.502436 -0.74043,-0.515658 -1.05776,-1.3486445 l 1.08421,-0.46277 q 0.23799,0.581768 0.68754,0.912318 0.46277,0.3173285 1.00487,0.3173285 0.58177,0 0.96521,-0.2512185 0.39666,-0.251218 0.39666,-0.59499 0,-0.621434 -0.95199,-0.912318 l -1.11064,-0.277662 q -1.89075,-0.475992 -1.89075,-1.824636 0,-0.885874 0.71399,-1.414754 0.72721,-0.542102 1.85108,-0.542102 0.85943,0 1.54697,0.409882 0.70077,0.409882 0.97843,1.097426 l -1.0842,0.449548 q -0.18511,-0.409882 -0.60822,-0.634656 -0.40988,-0.237996 -0.92554,-0.237996 -0.47599,0 -0.85943,0.237996 -0.37021,0.237996 -0.37021,0.581768 0,0.555324 1.04454,0.79332 l 0.97842,0.251218 q 1.93042,0.475992 1.93042,1.943634 z m 3.55673,1.9039685 q -0.79332,0 -1.3222,-0.489214 -0.51566,-0.489214 -0.52888,-1.3618665 V 5.7494045 H 111.186 v -1.110648 h 1.13709 v -1.9833 h 1.21642 v 1.9833 h 1.58664 v 1.110648 h -1.58664 v 3.226168 q 0,0.647878 0.25122,0.885874 0.25122,0.2247745 0.56855,0.2247745 0.14544,0 0.27766,-0.02644 0.14544,-0.03967 0.26444,-0.092555 l 0.38344,1.084205 q -0.476,0.171886 -1.11065,0.171886 z"
             id="path2" />
          <path
             style="font-family:'Product Sans';-inkscape-font-specification:'Product Sans';fill:#ffffff"
             d="m 37.724599,23.864813 v 3.83438 h -1.216425 v -9.466952 h 3.226169 q 1.229646,0 2.089076,0.819764 0.872652,0.819764 0.872652,1.996522 0,1.203202 -0.872652,2.009744 -0.846208,0.806542 -2.089076,0.806542 z m 0,-4.469036 v 3.3055 h 2.036188 q 0.72721,0 1.203202,-0.489214 0.489214,-0.489214 0.489214,-1.163536 0,-0.6611 -0.489214,-1.150314 -0.475992,-0.502436 -1.203202,-0.502436 z m 7.602639,-0.409882 q 0,0.356994 -0.251218,0.608212 -0.251218,0.251218 -0.608212,0.251218 -0.356994,0 -0.608212,-0.251218 -0.251218,-0.251218 -0.251218,-0.608212 0,-0.356994 0.251218,-0.608212 0.251218,-0.251218 0.608212,-0.251218 0.356994,0 0.608212,0.251218 0.251218,0.251218 0.251218,0.608212 z m -0.251218,2.234518 v 6.47878 h -1.216424 v -6.47878 z m 6.54488,4.680588 q 0,0.846208 -0.740432,1.427976 -0.740432,0.581768 -1.864302,0.581768 -0.978428,0 -1.71886,-0.502436 -0.740432,-0.515658 -1.05776,-1.348644 l 1.084204,-0.46277 q 0.237996,0.581768 0.687544,0.912318 0.46277,0.317328 1.004872,0.317328 0.581768,0 0.965206,-0.251218 0.39666,-0.251218 0.39666,-0.59499 0,-0.621434 -0.951984,-0.912318 L 48.3154,24.790353 q -1.890746,-0.475992 -1.890746,-1.824636 0,-0.885874 0.713988,-1.414754 0.72721,-0.542102 1.85108,-0.542102 0.85943,0 1.546974,0.409882 0.700766,0.409882 0.978428,1.097426 l -1.084204,0.449548 q -0.185108,-0.409882 -0.608212,-0.634656 -0.409882,-0.237996 -0.92554,-0.237996 -0.475992,0 -0.85943,0.237996 -0.370216,0.237996 -0.370216,0.581768 0,0.555324 1.044538,0.79332 l 0.978428,0.251218 q 1.930412,0.475992 1.930412,1.943634 z m 2.009732,-0.185108 q 0,0.475992 0.39666,0.79332 0.409882,0.317328 0.951984,0.317328 0.766876,0 1.361866,-0.568546 0.608212,-0.568546 0.608212,-1.335422 -0.568546,-0.449548 -1.58664,-0.449548 -0.740432,0 -1.242868,0.356994 -0.489214,0.356994 -0.489214,0.885874 z m 1.573418,-4.707032 q 1.348644,0 2.128742,0.72721 0.780098,0.713988 0.780098,1.970078 v 3.993044 h -1.163536 v -0.899096 h -0.05289 q -0.753654,1.110648 -2.009744,1.110648 -1.070982,0 -1.798192,-0.634656 -0.713988,-0.634656 -0.713988,-1.58664 0,-1.004872 0.753654,-1.599862 0.766876,-0.59499 2.036188,-0.59499 1.084204,0 1.78497,0.39666 v -0.277662 q 0,-0.634656 -0.502436,-1.070982 -0.502436,-0.449548 -1.176758,-0.449548 -1.018094,0 -1.613084,0.85943 l -1.070982,-0.674322 q 0.885874,-1.269312 2.617956,-1.269312 z m 12.746002,5.526796 v 1.163536 H 62.18526 v -1.216424 l 2.340294,-2.366738 q 1.176758,-1.203202 1.626306,-1.798192 0.449548,-0.608212 0.449548,-1.269312 0,-0.59499 -0.46277,-1.018094 -0.46277,-0.423104 -1.18998,-0.423104 -0.621434,0 -1.070982,0.370216 -0.449548,0.370216 -0.581768,0.899096 L 62.18526,20.427093 q 0.26444,-0.832986 1.018094,-1.401532 0.753654,-0.581768 1.771748,-0.581768 1.229646,0 2.04941,0.753654 0.819764,0.753654 0.819764,1.85108 0,1.308978 -1.441198,2.829508 l -2.6444,2.657622 z m 1.163542,-3.358388 q 0,-2.062632 1.018094,-3.398054 1.018094,-1.335422 2.617956,-1.335422 1.599862,0 2.617956,1.348644 1.018094,1.335422 1.018094,3.384832 0,2.036188 -1.018094,3.398054 -1.018094,1.335422 -2.617956,1.335422 -1.599862,0 -2.617956,-1.335422 -1.018094,-1.361866 -1.018094,-3.398054 z m 6.029232,0 q 0,-1.560196 -0.6611,-2.565068 -0.647878,-1.004872 -1.732082,-1.004872 -1.084204,0 -1.732082,1.004872 -0.6611,1.004872 -0.6611,2.565068 0,1.560196 0.6611,2.57829 0.647878,0.99165 1.732082,0.99165 1.084204,0 1.732082,-1.004872 0.6611,-1.018094 0.6611,-2.565068 z m 7.986093,3.358388 v 1.163536 h -5.764792 v -1.216424 l 2.340294,-2.366738 q 1.176758,-1.203202 1.626306,-1.798192 0.449548,-0.608212 0.449548,-1.269312 0,-0.59499 -0.46277,-1.018094 -0.46277,-0.423104 -1.18998,-0.423104 -0.621434,0 -1.070982,0.370216 -0.449548,0.370216 -0.581768,0.899096 l -1.110648,-0.449548 q 0.26444,-0.832986 1.018094,-1.401532 0.753654,-0.581768 1.771748,-0.581768 1.229646,0 2.04941,0.753654 0.819764,0.753654 0.819764,1.85108 0,1.308978 -1.441198,2.829508 l -2.6444,2.657622 z m 6.624228,-0.740432 v 1.903968 h -1.216424 v -1.903968 h -4.29715 v -0.92554 l 4.191374,-6.21434 h 1.3222 v 6.002788 h 1.163536 v 1.137092 z m -4.138486,-1.137092 h 2.922062 v -4.217818 h -0.05289 z"
             id="path3" />
        </g>
        <g
           style="fill:none"
           id="g1188"
           transform="matrix(0.11795109,0,0,0.12019685,-7.5006834,-7.7235795)">
          <path
             fill-rule="evenodd"
             clip-rule="evenodd"
             d="m 186.73056,64.111419 c -2.69315,-0.37833 -5.18079,1.497293 -5.55961,4.18939 -0.37882,2.691928 1.49688,5.180949 4.1885,5.55931 l 3.24988,0.456732 -3.88176,27.621399 4.80504,0.67544 2.67935,-19.063121 c 0.50459,-3.589288 3.82349,-6.090119 7.41231,-5.585689 3.58883,0.504429 6.09028,3.823176 5.58569,7.412618 l -2.67935,19.062972 5.41699,0.76116 2.67781,-19.063117 c 0.50459,-3.589288 3.82349,-6.090119 7.41385,-5.585689 3.58883,0.50443 6.09027,3.823176 5.58569,7.412618 l -2.67935,19.062968 5.67771,0.79798 2.67935,-19.062971 c 0.50458,-3.589442 3.82348,-6.090272 7.41231,-5.585689 3.59036,0.50443 6.09027,3.823176 5.58569,7.412464 l -2.67935,19.062966 4.68234,0.65795 3.88177,-27.6214 3.24988,0.456733 c 2.69162,0.378207 5.1808,-1.497339 5.55962,-4.189421 0.37729,-2.692081 -1.49841,-5.181103 -4.19004,-5.559463 z"
             fill="#999999"
             id="path4"
             style="stroke-width:1.53369" />
          <path
             fill-rule="evenodd"
             clip-rule="evenodd"
             d="m 174.01476,100.30089 c -2.99069,-0.420384 -5.75746,1.66374 -6.17769,4.65489 -0.42023,2.99115 1.66405,5.7567 4.65474,6.17708 l 5.41698,0.76117 -3.72992,26.53832 4.75749,0.66853 2.74377,-19.52062 c 0.50458,-3.58944 3.82348,-6.09027 7.41231,-5.58584 3.58883,0.50443 6.09027,3.82317 5.58569,7.41262 l -2.74377,19.52077 3.21768,0.45213 2.74377,-19.52062 c 0.50458,-3.58944 3.82348,-6.09027 7.41231,-5.58584 3.59036,0.50443 6.09027,3.82317 5.58569,7.41261 l -2.74223,19.52062 3.24835,0.45674 2.74376,-19.52078 c 0.50459,-3.58929 3.82348,-6.09012 7.41231,-5.58569 3.59037,0.50443 6.09028,3.82318 5.58569,7.41262 l -2.74223,19.52062 3.24835,0.45673 2.74377,-19.52077 c 0.50458,-3.58929 3.82348,-6.09012 7.41231,-5.58569 3.59036,0.50443 6.09027,3.82318 5.58569,7.41247 l -2.74224,19.52077 3.93851,0.55366 3.72993,-26.53816 5.41545,0.76117 c 2.99223,0.42038 5.75746,-1.66374 6.17769,-4.6549 0.42023,-2.99115 -1.66405,-5.75669 -4.65474,-6.17707 z"
             fill="#999999"
             id="path6"
             style="stroke-width:1.53369" />
          <path
             fill-rule="evenodd"
             clip-rule="evenodd"
             d="m 168.77722,137.56474 c -2.99069,-0.42038 -5.75593,1.66359 -6.17616,4.65474 -0.42023,2.9913 1.66252,5.75685 4.65474,6.17723 l 5.41545,0.76117 -3.72993,26.53816 4.7621,0.66915 2.7361,-19.46357 c 0.50305,-3.58944 3.82195,-6.09027 7.41231,-5.58584 3.58883,0.50443 6.09028,3.82318 5.58569,7.41262 l -2.7361,19.46372 2.97076,0.41747 2.73609,-19.46372 c 0.50459,-3.58944 3.82195,-6.09027 7.41232,-5.58585 3.58882,0.50459 6.09027,3.82318 5.58569,7.41262 l -2.7361,19.46372 3.24988,0.45673 2.7361,-19.46372 c 0.50458,-3.58944 3.82195,-6.09027 7.41231,-5.58584 3.58883,0.50443 6.09027,3.82318 5.58569,7.41262 l -2.7361,19.46372 3.24988,0.45673 2.7361,-19.46372 c 0.50459,-3.58944 3.82195,-6.09027 7.41231,-5.58584 3.58883,0.50443 6.09028,3.82318 5.58569,7.41262 l -2.73609,19.46372 4.18389,0.58786 3.72993,-26.53831 5.41545,0.76117 c 2.99069,0.42038 5.75593,-1.6636 6.17616,-4.65475 0.42177,-2.99115 -1.66252,-5.75669 -4.65474,-6.17708 z"
             fill="#999999"
             id="path8"
             style="stroke-width:1.53369" />
          <path
             fill-rule="evenodd"
             clip-rule="evenodd"
             d="m 163.61329,174.84914 c -2.99069,-0.42038 -5.75593,1.66359 -6.17616,4.65489 -0.42176,2.99115 1.66252,5.7567 4.65475,6.17708 l 5.41545,0.76117 -3.65325,25.99692 4.74063,0.66562 2.67628,-19.04517 c 0.50459,-3.58944 3.82349,-6.09027 7.41385,-5.58584 3.58883,0.50442 6.09027,3.82317 5.58569,7.41261 l -2.67782,19.04503 2.97075,0.41869 2.67782,-19.04625 c 0.50458,-3.58944 3.82195,-6.09027 7.41231,-5.58584 3.58883,0.50443 6.09028,3.82318 5.58569,7.41262 l -2.67628,19.04609 3.24835,0.45704 2.67782,-19.0464 c 0.50458,-3.58944 3.82194,-6.09027 7.41231,-5.58584 3.58883,0.50443 6.09027,3.82317 5.58569,7.41261 l -2.67629,19.04626 3.24835,0.4555 2.67782,-19.04518 c 0.50458,-3.58928 3.82195,-6.09012 7.41231,-5.58569 3.58883,0.50443 6.09027,3.82318 5.58569,7.41262 l -2.67628,19.04641 4.2023,0.59047 3.65324,-25.99708 5.41699,0.76102 c 2.99069,0.42038 5.75593,-1.66359 6.17616,-4.65475 0.42023,-2.99115 -1.66252,-5.75669 -4.65475,-6.17707 z"
             fill="#999999"
             id="path10"
             style="stroke-width:1.53369" />
          <path
             fill-rule="evenodd"
             clip-rule="evenodd"
             d="m 156.84053,211.11717 c -2.99069,-0.42023 -5.75746,1.66405 -6.17769,4.65474 -0.42023,2.99222 1.66405,5.75746 4.65474,6.17769 l 6.92,0.97236 -3.69926,26.32728 5.16239,0.72543 2.7269,-19.41035 c 0.50458,-3.58883 3.82348,-6.09027 7.41231,-5.58569 3.59036,0.50459 6.09027,3.82349 5.58569,7.41231 l -2.7269,19.41035 2.97076,0.41716 2.72689,-19.41034 c 0.50459,-3.58883 3.82349,-6.09028 7.41231,-5.58569 3.59037,0.50458 6.09028,3.82348 5.58569,7.41231 l -2.72689,19.41035 3.24988,0.45704 2.7269,-19.41035 c 0.50458,-3.58883 3.82348,-6.09028 7.41231,-5.58569 3.59036,0.50458 6.09027,3.82348 5.58569,7.41231 l -2.7269,19.41035 3.07658,0.4325 2.72689,-19.41035 c 0.50459,-3.58883 3.82349,-6.09027 7.41232,-5.58569 3.59036,0.50458 6.09027,3.82348 5.58722,7.41231 l -2.72843,19.41035 3.95538,0.55673 3.69925,-26.32728 3.91244,0.54906 c 2.99222,0.42023 5.75746,-1.66252 6.17769,-4.65474 0.42023,-2.99069 -1.66405,-5.75593 -4.65474,-6.17616 z"
             fill="#999999"
             id="path12"
             style="stroke-width:1.53369" />
          <path
             fill-rule="evenodd"
             clip-rule="evenodd"
             d="m 146.61544,252.95769 c 0.42023,-2.99069 3.18546,-5.07497 6.17616,-4.65474 l 81.23942,11.4183 c 2.99222,0.42023 5.07497,3.18547 4.65474,6.1777 -0.42023,2.99069 -3.18547,5.07497 -6.17616,4.65474 l -5.41699,-0.76225 -5.08417,36.18122 h 5.00136 c 2.11648,0 3.83421,1.7162 3.83421,3.83422 0,2.11649 -1.71773,3.83422 -3.83421,3.83422 h -85.3083 c -2.11802,0 -3.83422,-1.71773 -3.83422,-3.83422 0,-2.11802 1.7162,-3.83422 3.83422,-3.83422 h 7.03503 l 7.91536,-46.08117 -5.38171,-0.75611 c -2.99223,-0.42023 -5.07651,-3.18546 -4.65474,-6.17769 z m 52.83246,53.01497 h 18.26162 l 3.61183,-24.91782 c 0.69476,-4.79737 -2.71003,-9.2558 -7.51047,-9.92909 -4.71915,-0.66408 -9.16685,2.56126 -9.92449,7.26508 z m -46.26675,0 5.23448,-33.08777 c 0.7469,-4.71455 5.19153,-7.9537 9.91989,-7.28961 4.79737,0.67482 8.19296,5.12865 7.50126,9.92449 l -4.34033,30.06794 z m 37.91122,-37.74864 c -4.72376,-0.66409 -9.16992,2.56892 -9.91989,7.27888 l -4.85872,30.46976 18.29075,-0.20244 3.99373,-27.62018 c 0.69322,-4.79584 -2.70696,-9.2512 -7.50587,-9.92602 z"
             fill="#999999"
             id="path14"
             style="stroke-width:1.53369" />
          <path
             d="M 26.933219,187.98563 106.62607,141.97501"
             stroke="#ea4335"
             stroke-width="23.0053"
             stroke-linecap="round"
             id="path16" />
          <path
             d="m 26.933219,187.98563 79.692851,46.01108"
             stroke="#4285f4"
             stroke-width="23.0053"
             stroke-linecap="round"
             id="path18" />
          <path
             d="m 375.41246,190.76268 -79.69194,46.01001"
             stroke="#fbbc04"
             stroke-width="23.0053"
             stroke-linecap="round"
             id="path20" />
          <path
             d="M 375.41246,190.76268 295.72052,144.75206"
             stroke="#34a853"
             stroke-width="23.0053"
             stroke-linecap="round"
             id="path22" />
        </g>
      </g>
    </g>
  </g>
  <style
     id="style93">.st0{fill:#673ab7}</style>
</svg>
