<?xml version="1.0" encoding="UTF-8" standalone="no"?>
<svg
   id="Layer_4"
   width="134.1"
   height="32"
   version="1.1"
   sodipodi:docname="logo-monochrome.svg"
   xml:space="preserve"
   inkscape:version="1.3.2 (091e20e, 2023-11-25)"
   xmlns:inkscape="http://www.inkscape.org/namespaces/inkscape"
   xmlns:sodipodi="http://sodipodi.sourceforge.net/DTD/sodipodi-0.dtd"
   xmlns="http://www.w3.org/2000/svg"
   xmlns:svg="http://www.w3.org/2000/svg"><defs
     id="defs106"><inkscape:path-effect
       effect="roughen"
       id="path-effect908"
       is_visible="true"
       lpeversion="1"
       method="size"
       max_segment_size="0.4"
       segments="2"
       displace_x="1.4;1"
       displace_y="1.4;1"
       global_randomize="1;1"
       handles="along"
       shift_nodes="true"
       fixed_displacement="true"
       spray_tool_friendly="true" /><inkscape:path-effect
       effect="roughen"
       id="path-effect906"
       is_visible="true"
       lpeversion="1"
       method="size"
       max_segment_size="0.15"
       segments="2"
       displace_x="1;1"
       displace_y="1;1"
       global_randomize="1;2147483646"
       handles="along"
       shift_nodes="true"
       fixed_displacement="true"
       spray_tool_friendly="true" /><inkscape:path-effect
       effect="roughen"
       id="path-effect942"
       is_visible="true"
       lpeversion="1"
       method="size"
       max_segment_size="0.418214"
       segments="2"
       displace_x="0.3;1"
       displace_y="5;1"
       global_randomize="1;2147483646"
       handles="along"
       shift_nodes="true"
       fixed_displacement="true"
       spray_tool_friendly="true" /><inkscape:path-effect
       effect="skeletal"
       id="path-effect2104"
       is_visible="true"
       lpeversion="1"
       pattern="M 0,0 H 1"
       copytype="single_stretched"
       prop_scale="1"
       scale_y_rel="false"
       spacing="0"
       normal_offset="0"
       tang_offset="0"
       prop_units="false"
       vertical_pattern="false"
       hide_knot="false"
       fuse_tolerance="0" /><inkscape:path-effect
       effect="skeletal"
       id="path-effect2102"
       is_visible="true"
       lpeversion="1"
       pattern="M 0,0 H 1"
       copytype="single_stretched"
       prop_scale="1"
       scale_y_rel="false"
       spacing="0"
       normal_offset="0"
       tang_offset="0"
       prop_units="false"
       vertical_pattern="false"
       hide_knot="false"
       fuse_tolerance="0" /><inkscape:path-effect
       effect="envelope"
       id="path-effect2090"
       is_visible="true"
       lpeversion="1"
       yy="true"
       xx="true"
       bendpath1="m 107.89436,75.365196 h 14.9817"
       bendpath2="m 122.87606,75.365196 v 7.316923"
       bendpath3="m 107.89436,82.682119 h 14.9817"
       bendpath4="m 107.89436,75.365196 v 7.316923" /><marker
       style="overflow:visible"
       id="Arrow1Lstart"
       refX="0"
       refY="0"
       orient="auto"
       inkscape:stockid="Arrow1Lstart"
       inkscape:isstock="true"><path
         transform="matrix(0.8,0,0,0.8,10,0)"
         style="fill:#fa0000;fill-opacity:1;fill-rule:evenodd;stroke:#fa0000;stroke-width:1pt;stroke-opacity:1"
         d="M 0,0 5,-5 -12.5,0 5,5 Z"
         id="path878" /></marker></defs><sodipodi:namedview
     id="namedview104"
     pagecolor="#ffffff"
     bordercolor="#111111"
     borderopacity="1"
     inkscape:showpageshadow="0"
     inkscape:pageopacity="0"
     inkscape:pagecheckerboard="1"
     inkscape:deskcolor="#d1d1d1"
     showgrid="false"
     inkscape:zoom="5.6928445"
     inkscape:cx="60.163245"
     inkscape:cy="17.565911"
     inkscape:window-width="1512"
     inkscape:window-height="897"
     inkscape:window-x="0"
     inkscape:window-y="38"
     inkscape:window-maximized="0"
     inkscape:current-layer="XMLID_1_"
     inkscape:pageshadow="2"
     inkscape:lockguides="false"
     showguides="true"><sodipodi:guide
       position="15.481513,47.481513"
       orientation="1,0"
       id="guide1"
       inkscape:locked="false" /><sodipodi:guide
       position="28.241372,4.470895"
       orientation="0,-1"
       id="guide2"
       inkscape:locked="false" /></sodipodi:namedview><style
     id="style93">.st0{fill:#673ab7}</style><g
     id="XMLID_1_"
     transform="matrix(0.91617478,0,0,0.89905689,7.2619187,2.2833598)"><path
       fill="#a7a9ac"
       d="m 9.2426528,28.111912 h 9.8616532 c 0,0 0.206781,-1.445991 -0.361172,-1.552764 l 0.103389,-1.794033 c 0,0 0.784017,-0.29096 0.191523,-1.04054 0,0 0.712102,-0.646396 -0.08814,-1.235057 l 0.20134,-1.506662 c 0,0 0.624715,-0.421326 0.05665,-0.903649 l 0.232174,-1.311928 c 0,0 0.864039,-0.509071 0.180639,-1.070766 l 0.181067,-1.419462 c 0,0 0.516631,-0.428175 -0.02582,-0.856569 l 0.07169,-1.370207 c 0,0 0.702925,-0.530926 0.130493,-0.968996 l 0.08269,-1.542978 c 0,0 1.005307,-0.401537 0.257569,-0.857223 l -0.03457,-1.6599698 c 0,0 0.653737,-0.2408353 0.316999,-0.8032924 L 19.629137,7.810516 c 0,0 0.05687,-1.8408961 0.23815,-2.0171464 0.451224,-0.4379621 0.347408,-1.4310952 0.347408,-1.4310952 l -6.01573,-0.7765449 c 0,0 -0.386566,1.3656399 8.71e-4,1.6332227 0,0 -0.155671,1.9544096 -0.155671,1.9548448 l -1.315997,0.2944392 c 0,0 -0.284029,0.4282845 0.180853,0.6425901 l -0.103817,1.7406473 c 0,0 -0.593667,0.3743554 -0.10339,0.8566784 l -0.232196,1.552765 c 0,0 -0.74838,0.187775 -0.309212,0.803618 l -0.02604,1.499051 c 0,0 -0.929657,0.375007 -0.258209,0.990634 l -0.155244,1.365422 c 0,0 -0.593347,0.294547 -0.103391,0.8034 l -0.07757,1.392279 c 0,0 -0.722344,0.267583 -0.20614,0.829932 l -0.206353,1.767286 c 0,0 -0.702499,0.268453 -0.341328,1.098166 0,0 -0.568486,0.436004 -0.149803,0.96345 l -0.335882,2.168824 c -1.1019684,1.156445 -1.057795,2.168933 -1.057795,2.168933 z"
       id="path1"
       style="fill:#c62828;fill-opacity:1;stroke-width:0.107709" /><g
       id="text1"
       style="font-size:13.222px;fill:#c62828;stroke-width:1.10184"
       transform="scale(0.99061393,1.009475)"
       aria-label="GDG DevFest&#10;Pisa 2024"><path
         style="font-family:'Product Sans';-inkscape-font-specification:'Product Sans'"
         d="m 45.618133,6.7674985 q 0,1.9833 -1.176758,3.160058 -1.3222,1.4015325 -3.477386,1.4015325 -2.062632,0 -3.490608,-1.4279765 -1.427977,-1.427976 -1.427977,-3.517052 0,-2.089076 1.427977,-3.517052 1.427976,-1.427976 3.490608,-1.427976 1.044538,0 1.970078,0.370216 0.92554,0.370216 1.52053,1.044538 l -0.872652,0.872652 q -0.436326,-0.52888 -1.137092,-0.819764 -0.687544,-0.304106 -1.480864,-0.304106 -1.546974,0 -2.617956,1.070982 -1.05776,1.084204 -1.05776,2.71051 0,1.626306 1.05776,2.71051 1.070982,1.0709825 2.617956,1.0709825 1.414754,0 2.353516,-0.7933205 0.938762,-0.79332 1.084204,-2.18163 h -3.43772 v -1.137092 h 4.588034 q 0.06611,0.370216 0.06611,0.713988 z m 1.480871,4.3500385 V 1.6505845 h 2.895618 q 2.168408,0 3.477386,1.308978 1.3222,1.308978 1.3222,3.424498 0,2.128742 -1.3222,3.43772 -1.308978,1.2957565 -3.477386,1.2957565 z m 1.216424,-8.3034165 v 7.13988 h 1.679194 q 1.65275,0 2.604734,-0.938762 0.951984,-0.951984 0.951984,-2.631178 0,-1.665972 -0.951984,-2.617956 -0.951984,-0.951984 -2.604734,-0.951984 z m 17.029937,3.953378 q 0,1.9833 -1.176758,3.160058 -1.3222,1.4015325 -3.477386,1.4015325 -2.062632,0 -3.490609,-1.4279765 -1.427976,-1.427976 -1.427976,-3.517052 0,-2.089076 1.427976,-3.517052 1.427977,-1.427976 3.490609,-1.427976 1.044538,0 1.970078,0.370216 0.92554,0.370216 1.52053,1.044538 l -0.872652,0.872652 q -0.436326,-0.52888 -1.137092,-0.819764 -0.687544,-0.304106 -1.480864,-0.304106 -1.546974,0 -2.617957,1.070982 -1.05776,1.084204 -1.05776,2.71051 0,1.626306 1.05776,2.71051 1.070983,1.0709825 2.617957,1.0709825 1.414754,0 2.353516,-0.7933205 0.938762,-0.79332 1.084204,-2.18163 h -3.43772 v -1.137092 h 4.588034 q 0.06611,0.370216 0.06611,0.713988 z m 4.389704,4.3500385 V 1.6505845 h 2.895618 q 2.168408,0 3.477386,1.308978 1.3222,1.308978 1.3222,3.424498 0,2.128742 -1.3222,3.43772 -1.308978,1.2957565 -3.477386,1.2957565 z m 1.216424,-8.3034165 v 7.13988 h 1.679194 q 1.65275,0 2.604734,-0.938762 0.951984,-0.951984 0.951984,-2.631178 0,-1.665972 -0.951984,-2.617956 -0.951984,-0.951984 -2.604734,-0.951984 z m 10.418944,8.5149685 q -1.427976,0 -2.353516,-0.978428 -0.92554,-0.9784285 -0.92554,-2.4725145 0,-1.480864 0.899096,-2.459292 0.899096,-0.99165 2.300628,-0.99165 1.441198,0 2.287406,0.938762 0.85943,0.92554 0.85943,2.604734 l -0.01322,0.13222 h -5.09047 q 0.02644,0.951984 0.634656,1.533752 0.608212,0.5817685 1.45442,0.5817685 1.163536,0 1.824636,-1.1635365 l 1.084204,0.52888 q -0.436326,0.8197645 -1.216424,1.2825345 -0.766876,0.46277 -1.745304,0.46277 z M 79.426803,7.0980485 h 3.715382 q -0.05289,-0.674322 -0.555324,-1.110648 -0.489214,-0.449548 -1.3222,-0.449548 -0.687544,0 -1.18998,0.423104 -0.489214,0.423104 -0.647878,1.137092 z M 88.56319,11.117537 H 87.346766 L 84.72881,4.6387565 h 1.3222 l 1.903968,5.02436 h 0.02644 l 1.930412,-5.02436 H 91.20759 Z M 93.428876,7.0583825 V 11.117537 H 92.212452 V 1.6505845 h 5.526796 v 1.163536 h -4.310372 v 3.10717 h 3.887268 v 1.137092 z m 7.986074,4.2707065 q -1.427979,0 -2.353519,-0.978428 -0.92554,-0.9784285 -0.92554,-2.4725145 0,-1.480864 0.899096,-2.459292 0.899096,-0.99165 2.300623,-0.99165 1.4412,0 2.28741,0.938762 0.85943,0.92554 0.85943,2.604734 l -0.0132,0.13222 h -5.090471 q 0.02644,0.951984 0.634651,1.533752 0.60822,0.5817685 1.45442,0.5817685 1.16354,0 1.82464,-1.1635365 l 1.0842,0.52888 q -0.43632,0.8197645 -1.21642,1.2825345 -0.76688,0.46277 -1.7453,0.46277 z M 99.471313,7.0980485 h 3.715377 q -0.0529,-0.674322 -0.55532,-1.110648 -0.48921,-0.449548 -1.3222,-0.449548 -0.68754,0 -1.18998,0.423104 -0.489213,0.423104 -0.647877,1.137092 z m 11.146127,2.221296 q 0,0.8462085 -0.74044,1.4279765 -0.74043,0.581768 -1.8643,0.581768 -0.97843,0 -1.71886,-0.502436 -0.74043,-0.515658 -1.05776,-1.3486445 l 1.08421,-0.46277 q 0.23799,0.581768 0.68754,0.912318 0.46277,0.3173285 1.00487,0.3173285 0.58177,0 0.96521,-0.2512185 0.39666,-0.251218 0.39666,-0.59499 0,-0.621434 -0.95199,-0.912318 l -1.11064,-0.277662 q -1.89075,-0.475992 -1.89075,-1.824636 0,-0.885874 0.71399,-1.414754 0.72721,-0.542102 1.85108,-0.542102 0.85943,0 1.54697,0.409882 0.70077,0.409882 0.97843,1.097426 l -1.0842,0.449548 q -0.18511,-0.409882 -0.60822,-0.634656 -0.40988,-0.237996 -0.92554,-0.237996 -0.47599,0 -0.85943,0.237996 -0.37021,0.237996 -0.37021,0.581768 0,0.555324 1.04454,0.79332 l 0.97842,0.251218 q 1.93042,0.475992 1.93042,1.943634 z m 3.55673,1.9039685 q -0.79332,0 -1.3222,-0.489214 -0.51566,-0.489214 -0.52888,-1.3618665 V 5.7494045 H 111.186 v -1.110648 h 1.13709 v -1.9833 h 1.21642 v 1.9833 h 1.58664 v 1.110648 h -1.58664 v 3.226168 q 0,0.647878 0.25122,0.885874 0.25122,0.2247745 0.56855,0.2247745 0.14544,0 0.27766,-0.02644 0.14544,-0.03967 0.26444,-0.092555 l 0.38344,1.0842045 q -0.476,0.171886 -1.11065,0.171886 z"
         id="path2" /><path
         style="font-family:'Product Sans';-inkscape-font-specification:'Product Sans'"
         d="m 37.724599,23.864813 v 3.83438 h -1.216425 v -9.466952 h 3.226169 q 1.229646,0 2.089076,0.819764 0.872652,0.819764 0.872652,1.996522 0,1.203202 -0.872652,2.009744 -0.846208,0.806542 -2.089076,0.806542 z m 0,-4.469036 v 3.3055 h 2.036188 q 0.72721,0 1.203202,-0.489214 0.489214,-0.489214 0.489214,-1.163536 0,-0.6611 -0.489214,-1.150314 -0.475992,-0.502436 -1.203202,-0.502436 z m 7.602639,-0.409882 q 0,0.356994 -0.251218,0.608212 -0.251218,0.251218 -0.608212,0.251218 -0.356994,0 -0.608212,-0.251218 -0.251218,-0.251218 -0.251218,-0.608212 0,-0.356994 0.251218,-0.608212 0.251218,-0.251218 0.608212,-0.251218 0.356994,0 0.608212,0.251218 0.251218,0.251218 0.251218,0.608212 z m -0.251218,2.234518 v 6.47878 h -1.216424 v -6.47878 z m 6.54488,4.680588 q 0,0.846208 -0.740432,1.427976 -0.740432,0.581768 -1.864302,0.581768 -0.978428,0 -1.71886,-0.502436 -0.740432,-0.515658 -1.05776,-1.348644 l 1.084204,-0.46277 q 0.237996,0.581768 0.687544,0.912318 0.46277,0.317328 1.004872,0.317328 0.581768,0 0.965206,-0.251218 0.39666,-0.251218 0.39666,-0.59499 0,-0.621434 -0.951984,-0.912318 L 48.3154,24.790353 q -1.890746,-0.475992 -1.890746,-1.824636 0,-0.885874 0.713988,-1.414754 0.72721,-0.542102 1.85108,-0.542102 0.85943,0 1.546974,0.409882 0.700766,0.409882 0.978428,1.097426 l -1.084204,0.449548 q -0.185108,-0.409882 -0.608212,-0.634656 -0.409882,-0.237996 -0.92554,-0.237996 -0.475992,0 -0.85943,0.237996 -0.370216,0.237996 -0.370216,0.581768 0,0.555324 1.044538,0.79332 l 0.978428,0.251218 q 1.930412,0.475992 1.930412,1.943634 z m 2.009732,-0.185108 q 0,0.475992 0.39666,0.79332 0.409882,0.317328 0.951984,0.317328 0.766876,0 1.361866,-0.568546 0.608212,-0.568546 0.608212,-1.335422 -0.568546,-0.449548 -1.58664,-0.449548 -0.740432,0 -1.242868,0.356994 -0.489214,0.356994 -0.489214,0.885874 z m 1.573418,-4.707032 q 1.348644,0 2.128742,0.72721 0.780098,0.713988 0.780098,1.970078 v 3.993044 h -1.163536 v -0.899096 h -0.05289 q -0.753654,1.110648 -2.009744,1.110648 -1.070982,0 -1.798192,-0.634656 -0.713988,-0.634656 -0.713988,-1.58664 0,-1.004872 0.753654,-1.599862 0.766876,-0.59499 2.036188,-0.59499 1.084204,0 1.78497,0.39666 v -0.277662 q 0,-0.634656 -0.502436,-1.070982 -0.502436,-0.449548 -1.176758,-0.449548 -1.018094,0 -1.613084,0.85943 l -1.070982,-0.674322 q 0.885874,-1.269312 2.617956,-1.269312 z m 12.746002,5.526796 v 1.163536 H 62.18526 v -1.216424 l 2.340294,-2.366738 q 1.176758,-1.203202 1.626306,-1.798192 0.449548,-0.608212 0.449548,-1.269312 0,-0.59499 -0.46277,-1.018094 -0.46277,-0.423104 -1.18998,-0.423104 -0.621434,0 -1.070982,0.370216 -0.449548,0.370216 -0.581768,0.899096 L 62.18526,20.427093 q 0.26444,-0.832986 1.018094,-1.401532 0.753654,-0.581768 1.771748,-0.581768 1.229646,0 2.04941,0.753654 0.819764,0.753654 0.819764,1.85108 0,1.308978 -1.441198,2.829508 l -2.6444,2.657622 z m 1.163542,-3.358388 q 0,-2.062632 1.018094,-3.398054 1.018094,-1.335422 2.617956,-1.335422 1.599862,0 2.617956,1.348644 1.018094,1.335422 1.018094,3.384832 0,2.036188 -1.018094,3.398054 -1.018094,1.335422 -2.617956,1.335422 -1.599862,0 -2.617956,-1.335422 -1.018094,-1.361866 -1.018094,-3.398054 z m 6.029232,0 q 0,-1.560196 -0.6611,-2.565068 -0.647878,-1.004872 -1.732082,-1.004872 -1.084204,0 -1.732082,1.004872 -0.6611,1.004872 -0.6611,2.565068 0,1.560196 0.6611,2.57829 0.647878,0.99165 1.732082,0.99165 1.084204,0 1.732082,-1.004872 0.6611,-1.018094 0.6611,-2.565068 z m 7.986093,3.358388 v 1.163536 h -5.764792 v -1.216424 l 2.340294,-2.366738 q 1.176758,-1.203202 1.626306,-1.798192 0.449548,-0.608212 0.449548,-1.269312 0,-0.59499 -0.46277,-1.018094 -0.46277,-0.423104 -1.18998,-0.423104 -0.621434,0 -1.070982,0.370216 -0.449548,0.370216 -0.581768,0.899096 l -1.110648,-0.449548 q 0.26444,-0.832986 1.018094,-1.401532 0.753654,-0.581768 1.771748,-0.581768 1.229646,0 2.04941,0.753654 0.819764,0.753654 0.819764,1.85108 0,1.308978 -1.441198,2.829508 l -2.6444,2.657622 z m 6.624228,-0.740432 v 1.903968 h -1.216424 v -1.903968 h -4.29715 v -0.92554 l 4.191374,-6.21434 h 1.3222 v 6.002788 h 1.163536 v 1.137092 z m -4.138486,-1.137092 h 2.922062 v -4.217818 h -0.05289 z"
         id="path3" /></g></g><g
     id="g3118"
     transform="matrix(0.21284172,0,0,0.21284172,6.4999999,3.1143466)"><g
       id="layer2"
       inkscape:label="Torre"
       style="display:inline;stroke:#c62828;stroke-opacity:1"
       transform="translate(-33.964433,-75.421584)"><g
         id="g940"
         style="stroke:#c62828;stroke-linecap:round;stroke-linejoin:round;stroke-opacity:1" /></g><g
       id="layer3"
       inkscape:label="logo GDG"
       style="display:inline;fill:#c62828;fill-opacity:1"
       transform="translate(-33.964433,-75.421584)"><g
         id="g1973"
         transform="translate(190.34559,48.77017)"
         style="fill:#c62828;fill-opacity:1;stroke:#fffefe;stroke-opacity:1"><g
           id="layer1-8"
           inkscape:label="guida"
           style="fill:#c62828;fill-opacity:1;stroke:#fffefe;stroke-opacity:1" /><g
           id="layer2-2"
           inkscape:label="GDG logo"
           style="display:inline;opacity:1;fill:#c62828;fill-opacity:1;stroke:#fffefe;stroke-opacity:1"><path
             id="path876"
             style="color:#000000;font-style:normal;font-variant:normal;font-weight:normal;font-stretch:normal;font-size:medium;line-height:normal;font-family:sans-serif;font-variant-ligatures:normal;font-variant-position:normal;font-variant-caps:normal;font-variant-numeric:normal;font-variant-alternates:normal;font-variant-east-asian:normal;font-feature-settings:normal;font-variation-settings:normal;text-indent:0;text-align:start;text-decoration:none;text-decoration-line:none;text-decoration-style:solid;text-decoration-color:#000000;letter-spacing:normal;word-spacing:normal;text-transform:none;writing-mode:lr-tb;direction:ltr;text-orientation:mixed;dominant-baseline:auto;baseline-shift:baseline;text-anchor:start;white-space:normal;shape-padding:0;shape-margin:0;inline-size:0;clip-rule:nonzero;display:inline;overflow:visible;visibility:visible;opacity:1;isolation:auto;mix-blend-mode:normal;color-interpolation:sRGB;color-interpolation-filters:linearRGB;solid-color:#000000;solid-opacity:1;vector-effect:none;fill:#c62828;fill-opacity:1;fill-rule:nonzero;stroke:none;stroke-width:3.77953;stroke-linecap:round;stroke-linejoin:miter;stroke-miterlimit:4;stroke-dasharray:none;stroke-dashoffset:0;stroke-opacity:1;color-rendering:auto;image-rendering:auto;shape-rendering:auto;text-rendering:auto;enable-background:accumulate;stop-color:#000000;stop-opacity:1"
             d="m 152.63086,146.25391 a 33.259843,33.259843 0 0 0 -16.58789,4.43554 L 32.703125,210.13672 a 33.259843,33.259843 0 0 1 0.111328,-0.002 33.259843,33.259843 0 0 1 17.119141,4.48046 l 53.996096,31.28711 65.28906,-37.56054 a 33.259843,33.259843 0 0 0 12.23828,-45.41211 33.259843,33.259843 0 0 0 -28.82617,-16.67578 z M 0.08789062,245.79102 A 33.259843,33.259843 0 0 0 4.4316406,264.76953 33.259843,33.259843 0 0 0 32.572266,281.4375 L 16.582031,272.17188 A 33.259843,33.259843 0 0 1 0.08789062,245.79102 Z"
             transform="matrix(0.26458333,0,0,0.26458333,-156.38159,26.651414)" /><path
             style="color:#000000;font-style:normal;font-variant:normal;font-weight:normal;font-stretch:normal;font-size:medium;line-height:normal;font-family:sans-serif;font-variant-ligatures:normal;font-variant-position:normal;font-variant-caps:normal;font-variant-numeric:normal;font-variant-alternates:normal;font-variant-east-asian:normal;font-feature-settings:normal;font-variation-settings:normal;text-indent:0;text-align:start;text-decoration:none;text-decoration-line:none;text-decoration-style:solid;text-decoration-color:#000000;letter-spacing:normal;word-spacing:normal;text-transform:none;writing-mode:lr-tb;direction:ltr;text-orientation:mixed;dominant-baseline:auto;baseline-shift:baseline;text-anchor:start;white-space:normal;shape-padding:0;shape-margin:0;inline-size:0;clip-rule:nonzero;display:inline;overflow:visible;visibility:visible;opacity:1;isolation:auto;mix-blend-mode:normal;color-interpolation:sRGB;color-interpolation-filters:linearRGB;solid-color:#000000;solid-opacity:1;vector-effect:none;fill:#c62828;fill-opacity:1;fill-rule:nonzero;stroke:none;stroke-linecap:round;stroke-linejoin:miter;stroke-miterlimit:4;stroke-dasharray:none;stroke-dashoffset:0;stroke-opacity:1;color-rendering:auto;image-rendering:auto;shape-rendering:auto;text-rendering:auto;enable-background:accumulate;stop-color:#000000;stop-opacity:1"
             d="m -147.69922,83.517578 a 8.8000002,8.8000002 0 0 0 -7.49609,4.388672 8.8000002,8.8000002 0 0 0 3.20117,12.025391 l 31.52734,18.267579 a 8.8000002,8.8000002 0 0 0 12.02539,-3.20313 8.8000002,8.8000002 0 0 0 -3.20117,-12.02539 l -31.52734,-18.267575 a 8.8000002,8.8000002 0 0 0 -4.5293,-1.185547 z"
             id="path1160" /><g
             id="g1023"
             style="fill:#c62828;fill-opacity:1"><g
               id="g1027"
               style="fill:#c62828;fill-opacity:1" /></g></g><g
           id="layer4"
           inkscape:label="Torre"
           style="display:inline;fill:#c62828;fill-opacity:1;stroke:#fffefe;stroke-opacity:1" /><g
           id="layer5"
           inkscape:label="Torre 2"
           style="display:inline;fill:#c62828;fill-opacity:1;stroke:#fffefe;stroke-opacity:1" /><g
           id="layer6"
           inkscape:label="Pesci"
           style="display:inline;fill:#c62828;fill-opacity:1;stroke:#fffefe;stroke-opacity:1" /></g><g
         id="g1019"
         transform="translate(1.1794606,-36.112065)"
         style="display:inline;fill:#c62828;fill-opacity:1"><path
           id="path876-4"
           style="color:#000000;font-style:normal;font-variant:normal;font-weight:normal;font-stretch:normal;font-size:medium;line-height:normal;font-family:sans-serif;font-variant-ligatures:normal;font-variant-position:normal;font-variant-caps:normal;font-variant-numeric:normal;font-variant-alternates:normal;font-variant-east-asian:normal;font-feature-settings:normal;font-variation-settings:normal;text-indent:0;text-align:start;text-decoration:none;text-decoration-line:none;text-decoration-style:solid;text-decoration-color:#000000;letter-spacing:normal;word-spacing:normal;text-transform:none;writing-mode:lr-tb;direction:ltr;text-orientation:mixed;dominant-baseline:auto;baseline-shift:baseline;text-anchor:start;white-space:normal;shape-padding:0;shape-margin:0;inline-size:0;clip-rule:nonzero;display:inline;overflow:visible;visibility:visible;isolation:auto;mix-blend-mode:normal;color-interpolation:sRGB;color-interpolation-filters:linearRGB;solid-color:#000000;solid-opacity:1;vector-effect:none;fill:#c62828;fill-opacity:1;fill-rule:nonzero;stroke:none;stroke-width:1;stroke-linecap:round;stroke-linejoin:miter;stroke-miterlimit:4;stroke-dasharray:none;stroke-dashoffset:0;stroke-opacity:1;color-rendering:auto;image-rendering:auto;shape-rendering:auto;text-rendering:auto;enable-background:accumulate;stop-color:#000000"
           d="m 134.43369,204.26719 a 8.8,8.8 0 0 0 4.38887,-1.17357 l 27.342,-15.72876 a 8.8,8.8 0 0 1 -0.0294,5.3e-4 8.8,8.8 0 0 1 -4.52944,-1.18545 l -14.28646,-8.27805 -17.27439,9.93789 a 8.8,8.8 0 0 0 -3.23805,12.01529 8.8,8.8 0 0 0 7.62692,4.41213 z m 40.36032,-26.33586 a 8.8,8.8 0 0 0 -1.14928,-5.0214 8.8,8.8 0 0 0 -7.44554,-4.41006 l 4.23075,2.45153 a 8.8,8.8 0 0 1 4.36407,6.97993 z" /><path
           style="color:#000000;font-style:normal;font-variant:normal;font-weight:normal;font-stretch:normal;font-size:medium;line-height:normal;font-family:sans-serif;font-variant-ligatures:normal;font-variant-position:normal;font-variant-caps:normal;font-variant-numeric:normal;font-variant-alternates:normal;font-variant-east-asian:normal;font-feature-settings:normal;font-variation-settings:normal;text-indent:0;text-align:start;text-decoration:none;text-decoration-line:none;text-decoration-style:solid;text-decoration-color:#000000;letter-spacing:normal;word-spacing:normal;text-transform:none;writing-mode:lr-tb;direction:ltr;text-orientation:mixed;dominant-baseline:auto;baseline-shift:baseline;text-anchor:start;white-space:normal;shape-padding:0;shape-margin:0;inline-size:0;clip-rule:nonzero;display:inline;overflow:visible;visibility:visible;isolation:auto;mix-blend-mode:normal;color-interpolation:sRGB;color-interpolation-filters:linearRGB;solid-color:#000000;solid-opacity:1;vector-effect:none;fill:#c62828;fill-opacity:1;fill-rule:nonzero;stroke:none;stroke-linecap:round;stroke-linejoin:miter;stroke-miterlimit:4;stroke-dasharray:none;stroke-dashoffset:0;stroke-opacity:1;color-rendering:auto;image-rendering:auto;shape-rendering:auto;text-rendering:auto;enable-background:accumulate;stop-color:#000000"
           d="m 166.1349,186.09737 a 8.8000002,8.8000002 0 0 0 7.49609,-4.38867 8.8000002,8.8000002 0 0 0 -3.20117,-12.02539 l -31.52734,-18.26758 a 8.8000002,8.8000002 0 0 0 -12.02539,3.20313 8.8000002,8.8000002 0 0 0 3.20117,12.02539 l 31.52734,18.26758 a 8.8000002,8.8000002 0 0 0 4.5293,1.18554 z"
           id="path1160-4" /></g></g><g
       id="layer7"
       inkscape:label="Pesce"
       transform="translate(-33.964433,-75.421584)"><g
         id="g2088"
         transform="rotate(12.867792,111.65074,70.159956)"
         inkscape:path-effect="#path-effect906"
         style="fill:none;fill-opacity:1;stroke:#c62828;stroke-opacity:1"><g
           id="g2096"
           style="fill:none;fill-opacity:1;stroke:#c62828;stroke-opacity:1"><g
             id="g2115"
             style="fill:none;fill-opacity:1;stroke:#c62828;stroke-opacity:1" /></g></g></g></g></svg>
