<?xml version="1.0" encoding="UTF-8" standalone="no"?>
<svg
   width="400"
   height="400"
   viewBox="0 0 400 400"
   fill="none"
   version="1.1"
   id="svg24"
   sodipodi:docname="LogoQuadrato.svg"
   inkscape:export-filename="C:\Users\maryr\Downloads\LogoQuadrato.png"
   inkscape:export-xdpi="96"
   inkscape:export-ydpi="96"
   inkscape:version="1.1.2 (b8e25be833, 2022-02-05)"
   xmlns:inkscape="http://www.inkscape.org/namespaces/inkscape"
   xmlns:sodipodi="http://sodipodi.sourceforge.net/DTD/sodipodi-0.dtd"
   xmlns="http://www.w3.org/2000/svg"
   xmlns:svg="http://www.w3.org/2000/svg">
  <defs
     id="defs28" />
  <sodipodi:namedview
     id="namedview26"
     pagecolor="#ffffff"
     bordercolor="#666666"
     borderopacity="1.0"
     inkscape:pageshadow="2"
     inkscape:pageopacity="0"
     inkscape:pagecheckerboard="0"
     showgrid="false"
     inkscape:zoom="0.90509668"
     inkscape:cx="-18.782524"
     inkscape:cy="156.33689"
     inkscape:window-width="1536"
     inkscape:window-height="890"
     inkscape:window-x="-6"
     inkscape:window-y="-6"
     inkscape:window-maximized="1"
     inkscape:current-layer="svg24" />
  <path
     fill-rule="evenodd"
     clip-rule="evenodd"
     d="m 186.73056,64.111419 c -2.69315,-0.37833 -5.18079,1.497293 -5.55961,4.18939 -0.37882,2.691928 1.49688,5.180949 4.1885,5.55931 l 3.24988,0.456732 -3.88176,27.621399 4.80504,0.67544 2.67935,-19.063121 c 0.50459,-3.589288 3.82349,-6.090119 7.41231,-5.585689 3.58883,0.504429 6.09028,3.823176 5.58569,7.412618 l -2.67935,19.062972 5.41699,0.76116 2.67781,-19.063117 c 0.50459,-3.589288 3.82349,-6.090119 7.41385,-5.585689 3.58883,0.50443 6.09027,3.823176 5.58569,7.412618 l -2.67935,19.062968 5.67771,0.79798 2.67935,-19.062971 c 0.50458,-3.589442 3.82348,-6.090272 7.41231,-5.585689 3.59036,0.50443 6.09027,3.823176 5.58569,7.412464 l -2.67935,19.062966 4.68234,0.65795 3.88177,-27.6214 3.24988,0.456733 c 2.69162,0.378207 5.1808,-1.497339 5.55962,-4.189421 0.37729,-2.692081 -1.49841,-5.181103 -4.19004,-5.559463 z"
     fill="#999999"
     id="path4"
     style="stroke-width:1.53369" />
  <path
     fill-rule="evenodd"
     clip-rule="evenodd"
     d="m 174.01476,100.30089 c -2.99069,-0.420384 -5.75746,1.66374 -6.17769,4.65489 -0.42023,2.99115 1.66405,5.7567 4.65474,6.17708 l 5.41698,0.76117 -3.72992,26.53832 4.75749,0.66853 2.74377,-19.52062 c 0.50458,-3.58944 3.82348,-6.09027 7.41231,-5.58584 3.58883,0.50443 6.09027,3.82317 5.58569,7.41262 l -2.74377,19.52077 3.21768,0.45213 2.74377,-19.52062 c 0.50458,-3.58944 3.82348,-6.09027 7.41231,-5.58584 3.59036,0.50443 6.09027,3.82317 5.58569,7.41261 l -2.74223,19.52062 3.24835,0.45674 2.74376,-19.52078 c 0.50459,-3.58929 3.82348,-6.09012 7.41231,-5.58569 3.59037,0.50443 6.09028,3.82318 5.58569,7.41262 l -2.74223,19.52062 3.24835,0.45673 2.74377,-19.52077 c 0.50458,-3.58929 3.82348,-6.09012 7.41231,-5.58569 3.59036,0.50443 6.09027,3.82318 5.58569,7.41247 l -2.74224,19.52077 3.93851,0.55366 3.72993,-26.53816 5.41545,0.76117 c 2.99223,0.42038 5.75746,-1.66374 6.17769,-4.6549 0.42023,-2.99115 -1.66405,-5.75669 -4.65474,-6.17707 z"
     fill="#999999"
     id="path6"
     style="stroke-width:1.53369" />
  <path
     fill-rule="evenodd"
     clip-rule="evenodd"
     d="m 168.77722,137.56474 c -2.99069,-0.42038 -5.75593,1.66359 -6.17616,4.65474 -0.42023,2.9913 1.66252,5.75685 4.65474,6.17723 l 5.41545,0.76117 -3.72993,26.53816 4.7621,0.66915 2.7361,-19.46357 c 0.50305,-3.58944 3.82195,-6.09027 7.41231,-5.58584 3.58883,0.50443 6.09028,3.82318 5.58569,7.41262 l -2.7361,19.46372 2.97076,0.41747 2.73609,-19.46372 c 0.50459,-3.58944 3.82195,-6.09027 7.41232,-5.58585 3.58882,0.50459 6.09027,3.82318 5.58569,7.41262 l -2.7361,19.46372 3.24988,0.45673 2.7361,-19.46372 c 0.50458,-3.58944 3.82195,-6.09027 7.41231,-5.58584 3.58883,0.50443 6.09027,3.82318 5.58569,7.41262 l -2.7361,19.46372 3.24988,0.45673 2.7361,-19.46372 c 0.50459,-3.58944 3.82195,-6.09027 7.41231,-5.58584 3.58883,0.50443 6.09028,3.82318 5.58569,7.41262 l -2.73609,19.46372 4.18389,0.58786 3.72993,-26.53831 5.41545,0.76117 c 2.99069,0.42038 5.75593,-1.6636 6.17616,-4.65475 0.42177,-2.99115 -1.66252,-5.75669 -4.65474,-6.17708 z"
     fill="#999999"
     id="path8"
     style="stroke-width:1.53369" />
  <path
     fill-rule="evenodd"
     clip-rule="evenodd"
     d="m 163.61329,174.84914 c -2.99069,-0.42038 -5.75593,1.66359 -6.17616,4.65489 -0.42176,2.99115 1.66252,5.7567 4.65475,6.17708 l 5.41545,0.76117 -3.65325,25.99692 4.74063,0.66562 2.67628,-19.04517 c 0.50459,-3.58944 3.82349,-6.09027 7.41385,-5.58584 3.58883,0.50442 6.09027,3.82317 5.58569,7.41261 l -2.67782,19.04503 2.97075,0.41869 2.67782,-19.04625 c 0.50458,-3.58944 3.82195,-6.09027 7.41231,-5.58584 3.58883,0.50443 6.09028,3.82318 5.58569,7.41262 l -2.67628,19.04609 3.24835,0.45704 2.67782,-19.0464 c 0.50458,-3.58944 3.82194,-6.09027 7.41231,-5.58584 3.58883,0.50443 6.09027,3.82317 5.58569,7.41261 l -2.67629,19.04626 3.24835,0.4555 2.67782,-19.04518 c 0.50458,-3.58928 3.82195,-6.09012 7.41231,-5.58569 3.58883,0.50443 6.09027,3.82318 5.58569,7.41262 l -2.67628,19.04641 4.2023,0.59047 3.65324,-25.99708 5.41699,0.76102 c 2.99069,0.42038 5.75593,-1.66359 6.17616,-4.65475 0.42023,-2.99115 -1.66252,-5.75669 -4.65475,-6.17707 z"
     fill="#999999"
     id="path10"
     style="stroke-width:1.53369" />
  <path
     fill-rule="evenodd"
     clip-rule="evenodd"
     d="m 156.84053,211.11717 c -2.99069,-0.42023 -5.75746,1.66405 -6.17769,4.65474 -0.42023,2.99222 1.66405,5.75746 4.65474,6.17769 l 6.92,0.97236 -3.69926,26.32728 5.16239,0.72543 2.7269,-19.41035 c 0.50458,-3.58883 3.82348,-6.09027 7.41231,-5.58569 3.59036,0.50459 6.09027,3.82349 5.58569,7.41231 l -2.7269,19.41035 2.97076,0.41716 2.72689,-19.41034 c 0.50459,-3.58883 3.82349,-6.09028 7.41231,-5.58569 3.59037,0.50458 6.09028,3.82348 5.58569,7.41231 l -2.72689,19.41035 3.24988,0.45704 2.7269,-19.41035 c 0.50458,-3.58883 3.82348,-6.09028 7.41231,-5.58569 3.59036,0.50458 6.09027,3.82348 5.58569,7.41231 l -2.7269,19.41035 3.07658,0.4325 2.72689,-19.41035 c 0.50459,-3.58883 3.82349,-6.09027 7.41232,-5.58569 3.59036,0.50458 6.09027,3.82348 5.58722,7.41231 l -2.72843,19.41035 3.95538,0.55673 3.69925,-26.32728 3.91244,0.54906 c 2.99222,0.42023 5.75746,-1.66252 6.17769,-4.65474 0.42023,-2.99069 -1.66405,-5.75593 -4.65474,-6.17616 z"
     fill="#999999"
     id="path12"
     style="stroke-width:1.53369" />
  <path
     fill-rule="evenodd"
     clip-rule="evenodd"
     d="m 146.61544,252.95769 c 0.42023,-2.99069 3.18546,-5.07497 6.17616,-4.65474 l 81.23942,11.4183 c 2.99222,0.42023 5.07497,3.18547 4.65474,6.1777 -0.42023,2.99069 -3.18547,5.07497 -6.17616,4.65474 l -5.41699,-0.76225 -5.08417,36.18122 h 5.00136 c 2.11648,0 3.83421,1.7162 3.83421,3.83422 0,2.11649 -1.71773,3.83422 -3.83421,3.83422 h -85.3083 c -2.11802,0 -3.83422,-1.71773 -3.83422,-3.83422 0,-2.11802 1.7162,-3.83422 3.83422,-3.83422 h 7.03503 l 7.91536,-46.08117 -5.38171,-0.75611 c -2.99223,-0.42023 -5.07651,-3.18546 -4.65474,-6.17769 z m 52.83246,53.01497 h 18.26162 l 3.61183,-24.91782 c 0.69476,-4.79737 -2.71003,-9.2558 -7.51047,-9.92909 -4.71915,-0.66408 -9.16685,2.56126 -9.92449,7.26508 z m -46.26675,0 5.23448,-33.08777 c 0.7469,-4.71455 5.19153,-7.9537 9.91989,-7.28961 4.79737,0.67482 8.19296,5.12865 7.50126,9.92449 l -4.34033,30.06794 z m 37.91122,-37.74864 c -4.72376,-0.66409 -9.16992,2.56892 -9.91989,7.27888 l -4.85872,30.46976 18.29075,-0.20244 3.99373,-27.62018 c 0.69322,-4.79584 -2.70696,-9.2512 -7.50587,-9.92602 z"
     fill="#999999"
     id="path14"
     style="stroke-width:1.53369" />
  <path
     d="M 26.933219,187.98563 106.62607,141.97501"
     stroke="#ea4335"
     stroke-width="23.0053"
     stroke-linecap="round"
     id="path16" />
  <path
     d="m 26.933219,187.98563 79.692851,46.01108"
     stroke="#4285f4"
     stroke-width="23.0053"
     stroke-linecap="round"
     id="path18" />
  <path
     d="m 375.41246,190.76268 -79.69194,46.01001"
     stroke="#fbbc04"
     stroke-width="23.0053"
     stroke-linecap="round"
     id="path20" />
  <path
     d="M 375.41246,190.76268 295.72052,144.75206"
     stroke="#34a853"
     stroke-width="23.0053"
     stroke-linecap="round"
     id="path22" />
</svg>
