<svg width="329" height="229" viewBox="0 0 329 229" fill="none" xmlns="http://www.w3.org/2000/svg">
<path d="M3.18078 218.641V190.001H11.9408C16.3141 190.001 19.8208 191.321 22.4608 193.961C25.1274 196.601 26.4608 200.054 26.4608 204.321C26.4608 208.614 25.1274 212.081 22.4608 214.721C19.8208 217.334 16.3141 218.641 11.9408 218.641H3.18078ZM6.86078 193.521V215.121H11.9408C15.2741 215.121 17.9008 214.174 19.8208 212.281C21.7408 210.361 22.7008 207.708 22.7008 204.321C22.7008 200.961 21.7408 198.321 19.8208 196.401C17.9008 194.481 15.2741 193.521 11.9408 193.521H6.86078ZM38.4111 219.281C35.5311 219.281 33.1578 218.294 31.2911 216.321C29.4244 214.348 28.4911 211.854 28.4911 208.841C28.4911 205.854 29.3978 203.374 31.2111 201.401C33.0244 199.401 35.3444 198.401 38.1711 198.401C41.0778 198.401 43.3844 199.348 45.0911 201.241C46.8244 203.108 47.6911 205.734 47.6911 209.121L47.6511 209.521H32.2511C32.3044 211.441 32.9444 212.988 34.1711 214.161C35.3978 215.334 36.8644 215.921 38.5711 215.921C40.9178 215.921 42.7578 214.748 44.0911 212.401L47.3711 214.001C46.4911 215.654 45.2644 216.948 43.6911 217.881C42.1444 218.814 40.3844 219.281 38.4111 219.281ZM32.5311 206.481H43.7711C43.6644 205.121 43.1044 204.001 42.0911 203.121C41.1044 202.214 39.7711 201.761 38.0911 201.761C36.7044 201.761 35.5044 202.188 34.4911 203.041C33.5044 203.894 32.8511 205.041 32.5311 206.481ZM60.1858 218.641H56.5058L48.5858 199.041H52.5858L58.3458 214.241H58.4258L64.2658 199.041H68.1858L60.1858 218.641ZM74.9077 206.361V218.641H71.2277V190.001H87.9477V193.521H74.9077V202.921H86.6677V206.361H74.9077ZM99.0752 219.281C96.1952 219.281 93.8218 218.294 91.9552 216.321C90.0885 214.348 89.1552 211.854 89.1552 208.841C89.1552 205.854 90.0618 203.374 91.8752 201.401C93.6885 199.401 96.0085 198.401 98.8352 198.401C101.742 198.401 104.048 199.348 105.755 201.241C107.488 203.108 108.355 205.734 108.355 209.121L108.315 209.521H92.9152C92.9685 211.441 93.6085 212.988 94.8352 214.161C96.0618 215.334 97.5285 215.921 99.2352 215.921C101.582 215.921 103.422 214.748 104.755 212.401L108.035 214.001C107.155 215.654 105.928 216.948 104.355 217.881C102.808 218.814 101.048 219.281 99.0752 219.281ZM93.1952 206.481H104.435C104.328 205.121 103.768 204.001 102.755 203.121C101.768 202.214 100.435 201.761 98.7552 201.761C97.3685 201.761 96.1685 202.188 95.1552 203.041C94.1685 203.894 93.5152 205.041 93.1952 206.481ZM126.916 213.201C126.916 214.908 126.169 216.348 124.676 217.521C123.182 218.694 121.302 219.281 119.036 219.281C117.062 219.281 115.329 218.774 113.836 217.761C112.342 216.721 111.276 215.361 110.636 213.681L113.916 212.281C114.396 213.454 115.089 214.374 115.996 215.041C116.929 215.681 117.942 216.001 119.036 216.001C120.209 216.001 121.182 215.748 121.956 215.241C122.756 214.734 123.156 214.134 123.156 213.441C123.156 212.188 122.196 211.268 120.276 210.681L116.916 209.841C113.102 208.881 111.196 207.041 111.196 204.321C111.196 202.534 111.916 201.108 113.356 200.041C114.822 198.948 116.689 198.401 118.956 198.401C120.689 198.401 122.249 198.814 123.636 199.641C125.049 200.468 126.036 201.574 126.596 202.961L123.316 204.321C122.942 203.494 122.329 202.854 121.476 202.401C120.649 201.921 119.716 201.681 118.676 201.681C117.716 201.681 116.849 201.921 116.076 202.401C115.329 202.881 114.956 203.468 114.956 204.161C114.956 205.281 116.009 206.081 118.116 206.561L121.076 207.321C124.969 208.281 126.916 210.241 126.916 213.201ZM137.684 218.961C136.084 218.961 134.75 218.468 133.684 217.481C132.644 216.494 132.11 215.121 132.084 213.361V202.401H128.644V199.041H132.084V193.041H135.764V199.041H140.564V202.401H135.764V212.161C135.764 213.468 136.017 214.361 136.524 214.841C137.03 215.294 137.604 215.521 138.244 215.521C138.537 215.521 138.817 215.494 139.084 215.441C139.377 215.361 139.644 215.268 139.884 215.161L141.044 218.441C140.084 218.788 138.964 218.961 137.684 218.961ZM153.493 218.641V190.001H163.573C164.933 190.001 166.2 190.228 167.373 190.681C168.573 191.108 169.613 191.721 170.493 192.521C171.373 193.321 172.067 194.281 172.573 195.401C173.08 196.494 173.333 197.708 173.333 199.041C173.333 200.401 173.08 201.641 172.573 202.761C172.067 203.854 171.373 204.801 170.493 205.601C169.613 206.401 168.573 207.028 167.373 207.481C166.2 207.908 164.933 208.121 163.573 208.121H158.893V218.641H153.493ZM163.653 203.001C165.067 203.001 166.133 202.601 166.853 201.801C167.573 201.001 167.933 200.081 167.933 199.041C167.933 198.534 167.84 198.041 167.653 197.561C167.493 197.081 167.227 196.668 166.853 196.321C166.507 195.948 166.067 195.654 165.533 195.441C165 195.228 164.373 195.121 163.653 195.121H158.893V203.001H163.653ZM179.445 196.201C178.992 196.201 178.552 196.121 178.125 195.961C177.725 195.774 177.365 195.534 177.045 195.241C176.752 194.921 176.512 194.561 176.325 194.161C176.165 193.761 176.085 193.321 176.085 192.841C176.085 192.361 176.165 191.921 176.325 191.521C176.512 191.121 176.752 190.774 177.045 190.481C177.365 190.161 177.725 189.921 178.125 189.761C178.552 189.574 178.992 189.481 179.445 189.481C180.378 189.481 181.178 189.814 181.845 190.481C182.512 191.121 182.845 191.908 182.845 192.841C182.845 193.774 182.512 194.574 181.845 195.241C181.178 195.881 180.378 196.201 179.445 196.201ZM176.845 218.641V199.041H182.085V218.641H176.845ZM194.637 219.281C193.357 219.281 192.21 219.121 191.197 218.801C190.21 218.481 189.343 218.068 188.597 217.561C187.877 217.028 187.263 216.428 186.757 215.761C186.25 215.068 185.863 214.374 185.597 213.681L190.277 211.681C190.73 212.694 191.33 213.454 192.077 213.961C192.85 214.441 193.703 214.681 194.637 214.681C195.597 214.681 196.357 214.508 196.917 214.161C197.477 213.814 197.757 213.401 197.757 212.921C197.757 212.388 197.517 211.961 197.037 211.641C196.583 211.294 195.783 210.988 194.637 210.721L191.877 210.121C191.263 209.988 190.623 209.774 189.957 209.481C189.317 209.188 188.73 208.814 188.197 208.361C187.663 207.908 187.223 207.361 186.877 206.721C186.53 206.081 186.357 205.334 186.357 204.481C186.357 203.521 186.557 202.668 186.957 201.921C187.383 201.174 187.957 200.548 188.677 200.041C189.397 199.508 190.237 199.108 191.197 198.841C192.183 198.548 193.237 198.401 194.357 198.401C196.223 198.401 197.89 198.774 199.357 199.521C200.823 200.241 201.903 201.401 202.597 203.001L198.077 204.841C197.703 204.068 197.157 203.508 196.437 203.161C195.717 202.814 194.997 202.641 194.277 202.641C193.53 202.641 192.877 202.801 192.317 203.121C191.757 203.414 191.477 203.801 191.477 204.281C191.477 204.734 191.703 205.094 192.157 205.361C192.637 205.628 193.277 205.868 194.077 206.081L197.077 206.801C199.077 207.281 200.557 208.054 201.517 209.121C202.503 210.161 202.997 211.401 202.997 212.841C202.997 213.694 202.797 214.508 202.397 215.281C201.997 216.054 201.423 216.748 200.677 217.361C199.957 217.948 199.077 218.414 198.037 218.761C197.023 219.108 195.89 219.281 194.637 219.281ZM218.488 216.561H218.168C217.555 217.308 216.808 217.948 215.928 218.481C215.075 219.014 213.968 219.281 212.608 219.281C211.595 219.281 210.635 219.108 209.728 218.761C208.848 218.441 208.075 217.988 207.408 217.401C206.741 216.814 206.221 216.108 205.848 215.281C205.475 214.454 205.288 213.548 205.288 212.561C205.288 211.548 205.488 210.641 205.888 209.841C206.288 209.014 206.848 208.308 207.568 207.721C208.288 207.134 209.128 206.694 210.088 206.401C211.075 206.081 212.141 205.921 213.288 205.921C214.568 205.921 215.621 206.028 216.448 206.241C217.275 206.428 217.955 206.628 218.488 206.841V206.241C218.488 205.201 218.075 204.348 217.248 203.681C216.421 202.988 215.395 202.641 214.168 202.641C212.355 202.641 210.821 203.401 209.568 204.921L205.768 202.321C207.848 199.708 210.688 198.401 214.288 198.401C217.328 198.401 219.648 199.121 221.248 200.561C222.848 201.974 223.648 204.081 223.648 206.881V218.641H218.488V216.561ZM218.488 210.681C217.875 210.388 217.235 210.161 216.568 210.001C215.928 209.814 215.221 209.721 214.448 209.721C213.195 209.721 212.221 210.001 211.528 210.561C210.861 211.094 210.528 211.761 210.528 212.561C210.528 213.361 210.848 214.001 211.488 214.481C212.155 214.961 212.915 215.201 213.768 215.201C214.461 215.201 215.101 215.081 215.688 214.841C216.275 214.574 216.768 214.241 217.168 213.841C217.595 213.414 217.915 212.934 218.128 212.401C218.368 211.841 218.488 211.268 218.488 210.681Z" fill="#E0E0E0"/>
<path d="M236.203 218.641V213.881C237.777 212.334 239.23 210.894 240.563 209.561C241.123 209.001 241.697 208.428 242.283 207.841C242.87 207.254 243.417 206.708 243.923 206.201C244.43 205.694 244.883 205.241 245.283 204.841C245.683 204.414 245.99 204.081 246.203 203.841C246.63 203.334 247.003 202.881 247.323 202.481C247.67 202.081 247.937 201.694 248.123 201.321C248.337 200.921 248.497 200.534 248.603 200.161C248.71 199.761 248.763 199.334 248.763 198.881C248.763 198.001 248.417 197.241 247.723 196.601C247.03 195.934 246.083 195.601 244.883 195.601C243.683 195.601 242.75 195.948 242.083 196.641C241.417 197.308 240.963 198.068 240.723 198.921L235.963 196.961C236.177 196.241 236.523 195.508 237.003 194.761C237.483 193.988 238.097 193.308 238.843 192.721C239.59 192.108 240.47 191.614 241.483 191.241C242.523 190.841 243.683 190.641 244.963 190.641C246.35 190.641 247.603 190.854 248.723 191.281C249.843 191.681 250.79 192.241 251.563 192.961C252.337 193.681 252.937 194.534 253.363 195.521C253.79 196.481 254.003 197.521 254.003 198.641C254.003 200.348 253.577 201.921 252.723 203.361C251.897 204.774 250.883 206.094 249.683 207.321L246.243 210.761C245.337 211.668 244.31 212.681 243.163 213.801L243.323 214.041H254.403V218.641H236.203ZM269.4 219.281C267.64 219.281 266.053 218.921 264.64 218.201C263.227 217.454 262.013 216.441 261 215.161C260.013 213.881 259.253 212.374 258.72 210.641C258.187 208.881 257.92 206.988 257.92 204.961C257.92 202.934 258.187 201.054 258.72 199.321C259.253 197.561 260.013 196.041 261 194.761C262.013 193.481 263.227 192.481 264.64 191.761C266.053 191.014 267.64 190.641 269.4 190.641C271.16 190.641 272.747 191.014 274.16 191.761C275.573 192.481 276.773 193.481 277.76 194.761C278.773 196.041 279.547 197.561 280.08 199.321C280.613 201.054 280.88 202.934 280.88 204.961C280.88 206.988 280.613 208.881 280.08 210.641C279.547 212.374 278.773 213.881 277.76 215.161C276.773 216.441 275.573 217.454 274.16 218.201C272.747 218.921 271.16 219.281 269.4 219.281ZM269.4 214.321C270.36 214.321 271.227 214.094 272 213.641C272.773 213.161 273.427 212.508 273.96 211.681C274.52 210.828 274.933 209.828 275.2 208.681C275.493 207.534 275.64 206.294 275.64 204.961C275.64 203.601 275.493 202.361 275.2 201.241C274.933 200.094 274.52 199.108 273.96 198.281C273.427 197.428 272.773 196.774 272 196.321C271.227 195.841 270.36 195.601 269.4 195.601C268.413 195.601 267.533 195.841 266.76 196.321C265.987 196.774 265.333 197.428 264.8 198.281C264.267 199.108 263.853 200.094 263.56 201.241C263.293 202.361 263.16 203.601 263.16 204.961C263.16 206.294 263.293 207.534 263.56 208.681C263.853 209.828 264.267 210.828 264.8 211.681C265.333 212.508 265.987 213.161 266.76 213.641C267.533 214.094 268.413 214.321 269.4 214.321ZM284.094 218.641V213.881C285.667 212.334 287.121 210.894 288.454 209.561C289.014 209.001 289.587 208.428 290.174 207.841C290.761 207.254 291.307 206.708 291.814 206.201C292.321 205.694 292.774 205.241 293.174 204.841C293.574 204.414 293.881 204.081 294.094 203.841C294.521 203.334 294.894 202.881 295.214 202.481C295.561 202.081 295.827 201.694 296.014 201.321C296.227 200.921 296.387 200.534 296.494 200.161C296.601 199.761 296.654 199.334 296.654 198.881C296.654 198.001 296.307 197.241 295.614 196.601C294.921 195.934 293.974 195.601 292.774 195.601C291.574 195.601 290.641 195.948 289.974 196.641C289.307 197.308 288.854 198.068 288.614 198.921L283.854 196.961C284.067 196.241 284.414 195.508 284.894 194.761C285.374 193.988 285.987 193.308 286.734 192.721C287.481 192.108 288.361 191.614 289.374 191.241C290.414 190.841 291.574 190.641 292.854 190.641C294.241 190.641 295.494 190.854 296.614 191.281C297.734 191.681 298.681 192.241 299.454 192.961C300.227 193.681 300.827 194.534 301.254 195.521C301.681 196.481 301.894 197.521 301.894 198.641C301.894 200.348 301.467 201.921 300.614 203.361C299.787 204.774 298.774 206.094 297.574 207.321L294.134 210.761C293.227 211.668 292.201 212.681 291.054 213.801L291.214 214.041H302.294V218.641H284.094ZM318.291 218.641V213.601H305.651V209.361L317.811 191.281H323.491V208.721H326.931V213.601H323.491V218.641H318.291ZM318.291 199.081H317.971L311.451 208.721H318.291V199.081Z" fill="#DD2E57"/>
<path fill-rule="evenodd" clip-rule="evenodd" d="M155.083 8.94191C153.328 8.69522 151.705 9.91817 151.458 11.6734C151.211 13.4287 152.434 15.0516 154.189 15.2983L156.308 15.5961L153.777 33.6059L156.91 34.0463L158.657 21.6167C158.986 19.2764 161.15 17.6458 163.49 17.9747C165.831 18.3036 167.461 20.4675 167.132 22.8078L165.385 35.2374L168.917 35.7337L170.664 23.3041C170.992 20.9638 173.156 19.3332 175.497 19.6621C177.837 19.991 179.468 22.1549 179.139 24.4952L177.392 36.9248L181.094 37.4451L182.841 25.0156C183.17 22.6752 185.334 21.0446 187.674 21.3736C190.015 21.7025 191.645 23.8663 191.316 26.2067L189.57 38.6362L192.622 39.0652L195.153 21.0554L197.272 21.3531C199.027 21.5998 200.65 20.3769 200.897 18.6216C201.143 16.8663 199.92 15.2434 198.165 14.9967L155.083 8.94191Z" fill="#E0E0E0"/>
<path fill-rule="evenodd" clip-rule="evenodd" d="M146.792 32.5383C144.842 32.2642 143.038 33.6231 142.764 35.5734C142.49 37.5237 143.849 39.3269 145.799 39.601L149.331 40.0973L146.899 57.4008L150.001 57.8368L151.79 45.1089C152.119 42.7685 154.283 41.1379 156.623 41.4668C158.963 41.7957 160.594 43.9596 160.265 46.3L158.476 59.0279L160.574 59.3228L162.363 46.5948C162.692 44.2545 164.856 42.6239 167.196 42.9528C169.537 43.2817 171.167 45.4456 170.838 47.7859L169.05 60.5139L171.168 60.8117L172.957 48.0837C173.286 45.7434 175.45 44.1128 177.79 44.4417C180.131 44.7706 181.761 46.9345 181.432 49.2748L179.644 62.0028L181.762 62.3006L183.551 49.5726C183.88 47.2323 186.044 45.6017 188.384 45.9306C190.725 46.2595 192.355 48.4234 192.026 50.7637L190.238 63.4917L192.806 63.8527L195.238 46.5491L198.769 47.0454C200.72 47.3195 202.523 45.9607 202.797 44.0104C203.071 42.0601 201.712 40.2569 199.762 39.9828L146.792 32.5383Z" fill="#E0E0E0"/>
<path fill-rule="evenodd" clip-rule="evenodd" d="M143.377 56.8352C141.427 56.5611 139.624 57.9199 139.35 59.8702C139.076 61.8205 140.435 63.6238 142.385 63.8979L145.916 64.3942L143.484 81.6977L146.589 82.134L148.373 69.4433C148.702 67.1029 150.865 65.4723 153.206 65.8012C155.546 66.1301 157.177 68.294 156.848 70.6344L155.064 83.3252L157.001 83.5974L158.785 70.9066C159.114 68.5662 161.278 66.9356 163.618 67.2645C165.958 67.5934 167.589 69.7573 167.26 72.0977L165.476 84.7885L167.595 85.0863L169.379 72.3955C169.708 70.0551 171.872 68.4245 174.212 68.7534C176.552 69.0823 178.183 71.2462 177.854 73.5866L176.07 86.2774L178.189 86.5751L179.973 73.8844C180.302 71.544 182.466 69.9134 184.806 70.2423C187.146 70.5712 188.777 72.7351 188.448 75.0755L186.664 87.7663L189.392 88.1496L191.824 70.846L195.355 71.3423C197.305 71.6164 199.108 70.2576 199.383 68.3073C199.657 66.357 198.298 64.5537 196.348 64.2797L143.377 56.8352Z" fill="#E0E0E0"/>
<path fill-rule="evenodd" clip-rule="evenodd" d="M140.01 81.1455C138.06 80.8714 136.257 82.2302 135.983 84.1805C135.709 86.1308 137.067 87.9341 139.018 88.2082L142.549 88.7045L140.167 105.655L143.258 106.089L145.004 93.6711C145.333 91.3308 147.496 89.7002 149.837 90.0291C152.177 90.358 153.808 92.5219 153.479 94.8623L151.734 107.28L153.67 107.553L155.416 95.1345C155.745 92.7941 157.909 91.1635 160.249 91.4924C162.589 91.8213 164.22 93.9852 163.891 96.3256L162.146 108.744L164.264 109.042L166.01 96.6233C166.339 94.283 168.503 92.6524 170.843 92.9813C173.183 93.3102 174.814 95.4741 174.485 97.8145L172.74 110.233L174.858 110.53L176.604 98.1122C176.933 95.7719 179.097 94.1413 181.437 94.4702C183.777 94.7991 185.408 96.963 185.079 99.3033L183.334 111.722L186.074 112.107L188.457 95.1563L191.988 95.6526C193.938 95.9267 195.741 94.5679 196.015 92.6176C196.289 90.6673 194.931 88.8641 192.98 88.59L140.01 81.1455Z" fill="#E0E0E0"/>
<path fill-rule="evenodd" clip-rule="evenodd" d="M135.594 104.793C133.644 104.519 131.84 105.878 131.566 107.828C131.292 109.779 132.651 111.582 134.601 111.856L139.113 112.49L136.701 129.656L140.067 130.129L141.845 117.473C142.174 115.133 144.338 113.502 146.679 113.831C149.019 114.16 150.65 116.324 150.321 118.664L148.542 131.32L150.479 131.592L152.257 118.936C152.586 116.596 154.75 114.965 157.091 115.294C159.431 115.623 161.061 117.787 160.733 120.128L158.954 132.783L161.073 133.081L162.851 120.425C163.18 118.085 165.344 116.454 167.685 116.783C170.025 117.112 171.655 119.276 171.327 121.616L169.548 134.272L171.554 134.554L173.332 121.898C173.661 119.558 175.825 117.927 178.166 118.256C180.506 118.585 182.137 120.749 181.808 123.089L180.029 135.745L182.608 136.108L185.021 118.942L187.571 119.3C189.522 119.575 191.325 118.216 191.599 116.265C191.873 114.315 190.514 112.512 188.564 112.238L135.594 104.793Z" fill="#E0E0E0"/>
<path fill-rule="evenodd" clip-rule="evenodd" d="M128.927 132.075C129.201 130.124 131.004 128.765 132.954 129.04L185.924 136.484C187.875 136.758 189.233 138.561 188.959 140.512C188.685 142.462 186.882 143.821 184.932 143.547L181.4 143.05L178.085 166.641L181.346 166.641C182.726 166.641 183.846 167.76 183.846 169.141C183.846 170.522 182.726 171.641 181.346 171.641L125.723 171.641C124.342 171.641 123.223 170.522 123.223 169.141C123.223 167.76 124.342 166.641 125.723 166.641L130.31 166.641L135.471 136.595L131.962 136.102C130.011 135.828 128.653 134.025 128.927 132.075ZM163.375 166.641L175.282 166.641L177.637 150.394C178.09 147.266 175.87 144.36 172.74 143.92C169.663 143.487 166.763 145.59 166.269 148.657L163.375 166.641ZM133.208 166.641L136.622 145.067C137.108 141.993 140.006 139.881 143.089 140.314C146.217 140.754 148.431 143.658 147.98 146.785L145.15 166.39L133.208 166.641ZM157.927 142.028C154.847 141.595 151.948 143.703 151.459 146.774L148.291 166.641L160.217 166.509L162.821 148.5C163.273 145.373 161.056 142.468 157.927 142.028Z" fill="#E0E0E0"/>
<path d="M50.8916 89.7109L102.853 59.7109" stroke="#EA4335" stroke-width="15" stroke-linecap="round"/>
<path d="M50.8916 89.7109L102.853 119.711" stroke="#4285F4" stroke-width="15" stroke-linecap="round"/>
<path d="M278.108 91.5216L226.147 121.522" stroke="#FBBC04" stroke-width="15" stroke-linecap="round"/>
<path d="M278.108 91.5216L226.147 61.5216" stroke="#34A853" stroke-width="15" stroke-linecap="round"/>
</svg>
