<?xml version="1.0" encoding="UTF-8" standalone="no"?>
<svg
   width="199.16544"
   height="28.77009"
   viewBox="0 0 760.81196 162.73082"
   fill="none"
   version="1.1"
   id="svg11"
   sodipodi:docname="logo-monochrome.svg"
   inkscape:version="1.3.2 (091e20e, 2023-11-25)"
   xmlns:inkscape="http://www.inkscape.org/namespaces/inkscape"
   xmlns:sodipodi="http://sodipodi.sourceforge.net/DTD/sodipodi-0.dtd"
   xmlns="http://www.w3.org/2000/svg"
   xmlns:svg="http://www.w3.org/2000/svg">
  <defs
     id="defs11" />
  <sodipodi:namedview
     id="namedview11"
     pagecolor="#ffffff"
     bordercolor="#666666"
     borderopacity="1.0"
     inkscape:showpageshadow="2"
     inkscape:pageopacity="0.0"
     inkscape:pagecheckerboard="0"
     inkscape:deskcolor="#d1d1d1"
     inkscape:zoom="2.9314281"
     inkscape:cx="135.59944"
     inkscape:cy="-5.1169599"
     inkscape:window-width="1920"
     inkscape:window-height="833"
     inkscape:window-x="0"
     inkscape:window-y="25"
     inkscape:window-maximized="0"
     inkscape:current-layer="svg11" />
  <path
     fill-rule="evenodd"
     clip-rule="evenodd"
     d="m -71.167761,0.03163404 c -1.755,-0.24669 -3.378,0.97626996 -3.625,2.73148996 -0.246,1.7553 0.977,3.3782 2.732,3.6249 l 2.119,0.2978 -2.532,18.0098 3.134,0.4404 1.746,-12.4296 c 0.329,-2.3403 2.493,-3.9709 4.834,-3.642 2.34,0.3289 3.971,2.4928 3.642,4.8331 l -1.747,12.4296 3.531,0.4963 1.747,-12.4296 c 0.329,-2.3403 2.493,-3.9709 4.833,-3.642 2.34,0.3289 3.971,2.4928 3.642,4.8331 l -1.747,12.4296 3.703,0.5203 1.747,-12.4295 c 0.328,-2.3404 2.492,-3.971 4.833,-3.642 2.34,0.3289 3.971,2.4927 3.642,4.8331 l -1.747,12.4295 3.052,0.429 2.531,-18.0098 2.119,0.2977 c 1.755,0.2467 3.378,-0.9762 3.625,-2.7315 0.247,-1.7553 -0.976,-3.3782 -2.732,-3.6249 z"
     fill="#c62828"
     id="path2"
     style="fill:#e0e0e0;fill-opacity:1" />
  <path
     fill-rule="evenodd"
     clip-rule="evenodd"
     d="m -79.458761,23.628024 c -1.95,-0.2741 -3.753,1.0848 -4.0272,3.0351 -0.2741,1.9503 1.0852,3.7535 3.0352,4.0276 l 3.531,0.4963 -2.432,17.3035 3.102,0.436 1.789,-12.7279 c 0.329,-2.3404 2.493,-3.971 4.833,-3.6421 2.341,0.3289 3.971,2.4928 3.642,4.8332 l -1.788,12.7279 2.098,0.2949 1.789,-12.728 c 0.329,-2.3403 2.492,-3.9709 4.833,-3.642 2.34,0.3289 3.971,2.4928 3.642,4.8332 l -1.789,12.7279 2.119,0.2978 1.789,-12.728 c 0.329,-2.3403 2.492,-3.9709 4.833,-3.642 2.34,0.3289 3.971,2.4928 3.642,4.8331 l -1.789,12.728 2.119,0.2978 1.789,-12.728 c 0.329,-2.3403 2.492,-3.9709 4.833,-3.642 2.34,0.3289 3.971,2.4928 3.642,4.8331 l -1.789,12.728 2.569,0.361 2.431,-17.3036 3.532,0.4963 c 1.95,0.2741 3.753,-1.0847 4.028,-3.035 0.274,-1.9503 -1.085,-3.7535 -3.036,-4.0276 z"
     fill="#c62828"
     id="path3"
     style="fill:#e0e0e0;fill-opacity:1" />
  <path
     fill-rule="evenodd"
     clip-rule="evenodd"
     d="m -82.872761,47.924924 c -1.9504,-0.2741 -3.7537,1.0847 -4.0278,3.035 -0.2741,1.9503 1.0848,3.7536 3.0351,4.0277 l 3.5317,0.4963 -2.432,17.3035 3.104,0.4363 1.784,-12.6907 c 0.329,-2.3404 2.493,-3.971 4.833,-3.6421 2.341,0.3289 3.971,2.4928 3.642,4.8332 l -1.783,12.6908 1.937,0.2722 1.783,-12.6908 c 0.329,-2.3404 2.493,-3.971 4.833,-3.6421 2.341,0.3289 3.971,2.4928 3.642,4.8332 l -1.783,12.6908 2.119,0.2978 1.783,-12.6908 c 0.329,-2.3404 2.493,-3.971 4.833,-3.6421 2.341,0.3289 3.971,2.4928 3.642,4.8332 l -1.783,12.6908 2.119,0.2977 1.783,-12.6907 c 0.329,-2.3404 2.493,-3.971 4.833,-3.6421 2.341,0.3289 3.971,2.4928 3.642,4.8332 l -1.783,12.6908 2.727,0.3833 2.432,-17.3036 3.531,0.4963 c 1.951,0.2741 3.754,-1.0847 4.028,-3.035 0.274,-1.9503 -1.085,-3.7536 -3.035,-4.0276 z"
     fill="#c62828"
     id="path4"
     style="fill:#e0e0e0;fill-opacity:1" />
  <path
     fill-rule="evenodd"
     clip-rule="evenodd"
     d="m -86.240061,72.235224 c -1.9503,-0.2741 -3.7535,1.0847 -4.0276,3.035 -0.2741,1.9503 1.0847,3.7536 3.035,4.0277 l 3.5315,0.4963 -2.3823,16.9506 3.0917,0.434 1.745,-12.418 c 0.329,-2.3403 2.493,-3.9709 4.833,-3.642 2.341,0.3289 3.971,2.4928 3.642,4.8332 l -1.745,12.4178 1.937,0.273 1.745,-12.4186 c 0.329,-2.3404 2.493,-3.971 4.833,-3.6421 2.341,0.3289 3.971,2.4928 3.642,4.8332 l -1.745,12.4185 2.119,0.296996 1.745,-12.417796 c 0.329,-2.3403 2.493,-3.9709 4.833,-3.642 2.341,0.3289 3.971,2.4928 3.642,4.8332 l -1.745,12.418596 2.119,0.297 1.745,-12.417896 c 0.329,-2.3403 2.493,-3.9709 4.833,-3.642 2.341,0.3289 3.971,2.4928 3.642,4.8331 l -1.745,12.417796 2.741,0.386 2.382,-16.950796 3.531,0.4963 c 1.95,0.2741 3.754,-1.0847 4.028,-3.035 0.274,-1.9503 -1.085,-3.7535 -3.035,-4.0276 z"
     fill="#c62828"
     id="path5"
     style="fill:#e0e0e0;fill-opacity:1" />
  <path
     fill-rule="evenodd"
     clip-rule="evenodd"
     d="m -90.656361,95.882824 c -1.9503,-0.274 -3.7535,1.085 -4.0276,3.035 -0.2741,1.950996 1.0847,3.753996 3.035,4.027996 l 4.5118,0.634 -2.4125,17.166 3.366,0.473 1.7787,-12.656 c 0.3289,-2.34 2.4932,-3.971 4.8332,-3.642 2.34,0.329 3.971,2.493 3.642,4.833 l -1.779,12.656 1.937,0.272 1.779,-12.656 c 0.329,-2.34 2.493,-3.971 4.833,-3.642 2.34,0.329 3.971,2.493 3.642,4.833 l -1.779,12.656 2.119,0.298 1.779,-12.656 c 0.329,-2.34 2.493,-3.971 4.833,-3.642 2.34,0.329 3.971,2.493 3.642,4.833 l -1.779,12.656 2.006,0.282 1.779,-12.656 c 0.329,-2.34 2.493,-3.971 4.833,-3.642 2.34,0.329 3.971,2.493 3.642,4.833 l -1.779,12.656 2.579,0.363 2.413,-17.166 2.551,0.358 c 1.95,0.274 3.753,-1.084 4.028,-3.035 0.274,-1.95 -1.085,-3.753 -3.036,-4.027 z"
     fill="#c62828"
     id="path6"
     style="fill:#e0e0e0;fill-opacity:1" />
  <path
     fill-rule="evenodd"
     clip-rule="evenodd"
     d="m -97.323761,123.16382 c 0.2741,-1.95 2.0773,-3.309 4.0276,-3.035 l 52.9704,7.445 c 1.95,0.274 3.309,2.077 3.035,4.028 -0.274,1.95 -2.078,3.309 -4.028,3.035 l -3.531,-0.497 -3.316,23.591 h 3.261 c 1.381,0 2.5,1.119 2.5,2.5 0,1.38 -1.119,2.5 -2.5,2.5 h -55.622699 c -1.3807,0 -2.5,-1.12 -2.5,-2.5 0,-1.381 1.1193,-2.5 2.5,-2.5 h 4.586999 l 5.1615,-30.046 -3.5097,-0.493 c -1.9503,-0.274 -3.3092,-2.077 -3.0351,-4.028 z m 34.448,34.567 h 11.908 l 2.354,-16.247 c 0.453,-3.128 -1.767,-6.035 -4.897,-6.474 -3.076,-0.433 -5.976,1.67 -6.47,4.737 z m -30.1668,0 3.4137,-21.574 c 0.4865,-3.074 3.3848,-5.186 6.4671,-4.753 3.129,0.44 5.343,3.344 4.891,6.471 l -2.829,19.605 z m 24.7198,-24.613 c -3.08,-0.433 -5.979,1.675 -6.469,4.746 l -3.167,19.867 11.925,-0.132 2.604,-18.009 c 0.453,-3.127 -1.764,-6.032 -4.893,-6.472 z"
     fill="#c62828"
     id="path7"
     style="fill:#e0e0e0;fill-opacity:1" />
  <path
     d="m -175.35876,80.800624 51.9615,-30"
     stroke="#c62828"
     stroke-width="15"
     stroke-linecap="round"
     id="path8"
     style="stroke:#e0e0e0;stroke-opacity:1" />
  <path
     d="m -175.35876,80.800624 51.9615,30.000196"
     stroke="#c62828"
     stroke-width="15"
     stroke-linecap="round"
     id="path9"
     style="stroke:#e0e0e0;stroke-opacity:1" />
  <path
     d="m 936.17074,82.611424 -51.962,30.000396"
     stroke="#c62828"
     stroke-width="15"
     stroke-linecap="round"
     id="path10"
     style="stroke:#e0e0e0;stroke-opacity:1" />
  <path
     d="m 936.17074,82.611424 -51.962,-30"
     stroke="#c62828"
     stroke-width="15"
     stroke-linecap="round"
     id="path11"
     style="stroke:#e0e0e0;stroke-opacity:1" />
  <text
     xml:space="preserve"
     style="font-style:normal;font-weight:normal;font-size:105.583px;line-height:1.25;font-family:sans-serif;fill:#e0e0e0;fill-opacity:1;stroke:none;stroke-width:5.65625"
     x="-10.478741"
     y="119.75716"
     id="text11"><tspan
       sodipodi:role="line"
       id="tspan11"
       x="-10.478741"
       y="119.75716"
       style="font-style:normal;font-variant:normal;font-weight:normal;font-stretch:normal;font-size:105.583px;font-family:'Product Sans';-inkscape-font-specification:'Product Sans';fill:#e0e0e0;fill-opacity:1;stroke-width:5.65625">DevFest <tspan
   style="font-weight:bold;font-size:105.583px;fill:#e0e0e0;fill-opacity:1"
   id="tspan12">Pisa 2024</tspan></tspan></text>
</svg>
