<svg width="150" height="32" viewBox="0 0 573 181" fill="none" xmlns="http://www.w3.org/2000/svg">
<path d="M171.641 104.589V75.9491H180.401C184.775 75.9491 188.281 77.2691 190.921 79.9091C193.588 82.5491 194.921 86.0024 194.921 90.2691C194.921 94.5624 193.588 98.0291 190.921 100.669C188.281 103.282 184.775 104.589 180.401 104.589H171.641ZM175.321 79.4691V101.069H180.401C183.735 101.069 186.361 100.122 188.281 98.2291C190.201 96.3091 191.161 93.6558 191.161 90.2691C191.161 86.9091 190.201 84.2691 188.281 82.3491C186.361 80.4291 183.735 79.4691 180.401 79.4691H175.321ZM206.872 105.229C203.992 105.229 201.618 104.242 199.752 102.269C197.885 100.296 196.952 97.8024 196.952 94.7891C196.952 91.8024 197.858 89.3224 199.672 87.3491C201.485 85.3491 203.805 84.3491 206.632 84.3491C209.538 84.3491 211.845 85.2958 213.552 87.1891C215.285 89.0558 216.152 91.6824 216.152 95.0691L216.112 95.4691H200.712C200.765 97.3891 201.405 98.9358 202.632 100.109C203.858 101.282 205.325 101.869 207.032 101.869C209.378 101.869 211.218 100.696 212.552 98.3491L215.832 99.9491C214.952 101.602 213.725 102.896 212.152 103.829C210.605 104.762 208.845 105.229 206.872 105.229ZM200.992 92.4291H212.232C212.125 91.0691 211.565 89.9491 210.552 89.0691C209.565 88.1624 208.232 87.7091 206.552 87.7091C205.165 87.7091 203.965 88.1358 202.952 88.9891C201.965 89.8424 201.312 90.9891 200.992 92.4291ZM228.646 104.589H224.966L217.046 84.9891H221.046L226.806 100.189H226.886L232.726 84.9891H236.646L228.646 104.589ZM243.368 92.3091V104.589H239.688V75.9491H256.408V79.4691H243.368V88.8691H255.128V92.3091H243.368ZM267.536 105.229C264.656 105.229 262.283 104.242 260.416 102.269C258.549 100.296 257.616 97.8024 257.616 94.7891C257.616 91.8024 258.523 89.3224 260.336 87.3491C262.149 85.3491 264.469 84.3491 267.296 84.3491C270.203 84.3491 272.509 85.2958 274.216 87.1891C275.949 89.0558 276.816 91.6824 276.816 95.0691L276.776 95.4691H261.376C261.429 97.3891 262.069 98.9358 263.296 100.109C264.523 101.282 265.989 101.869 267.696 101.869C270.043 101.869 271.883 100.696 273.216 98.3491L276.496 99.9491C275.616 101.602 274.389 102.896 272.816 103.829C271.269 104.762 269.509 105.229 267.536 105.229ZM261.656 92.4291H272.896C272.789 91.0691 272.229 89.9491 271.216 89.0691C270.229 88.1624 268.896 87.7091 267.216 87.7091C265.829 87.7091 264.629 88.1358 263.616 88.9891C262.629 89.8424 261.976 90.9891 261.656 92.4291ZM295.376 99.1491C295.376 100.856 294.63 102.296 293.136 103.469C291.643 104.642 289.763 105.229 287.496 105.229C285.523 105.229 283.79 104.722 282.296 103.709C280.803 102.669 279.736 101.309 279.096 99.6291L282.376 98.2291C282.856 99.4024 283.55 100.322 284.456 100.989C285.39 101.629 286.403 101.949 287.496 101.949C288.67 101.949 289.643 101.696 290.416 101.189C291.216 100.682 291.616 100.082 291.616 99.3891C291.616 98.1358 290.656 97.2158 288.736 96.6291L285.376 95.7891C281.563 94.8291 279.656 92.9891 279.656 90.2691C279.656 88.4824 280.376 87.0558 281.816 85.9891C283.283 84.8958 285.15 84.3491 287.416 84.3491C289.15 84.3491 290.71 84.7624 292.096 85.5891C293.51 86.4158 294.496 87.5224 295.056 88.9091L291.776 90.2691C291.403 89.4424 290.79 88.8024 289.936 88.3491C289.11 87.8691 288.176 87.6291 287.136 87.6291C286.176 87.6291 285.31 87.8691 284.536 88.3491C283.79 88.8291 283.416 89.4158 283.416 90.1091C283.416 91.2291 284.47 92.0291 286.576 92.5091L289.536 93.2691C293.43 94.2291 295.376 96.1891 295.376 99.1491ZM306.144 104.909C304.544 104.909 303.211 104.416 302.144 103.429C301.104 102.442 300.571 101.069 300.544 99.3091V88.3491H297.104V84.9891H300.544V78.9891H304.224V84.9891H309.024V88.3491H304.224V98.1091C304.224 99.4158 304.478 100.309 304.984 100.789C305.491 101.242 306.064 101.469 306.704 101.469C306.998 101.469 307.278 101.442 307.544 101.389C307.838 101.309 308.104 101.216 308.344 101.109L309.504 104.389C308.544 104.736 307.424 104.909 306.144 104.909ZM321.954 104.589V75.9491H332.034C333.394 75.9491 334.661 76.1758 335.834 76.6291C337.034 77.0558 338.074 77.6691 338.954 78.4691C339.834 79.2691 340.527 80.2291 341.034 81.3491C341.541 82.4424 341.794 83.6558 341.794 84.9891C341.794 86.3491 341.541 87.5891 341.034 88.7091C340.527 89.8024 339.834 90.7491 338.954 91.5491C338.074 92.3491 337.034 92.9758 335.834 93.4291C334.661 93.8558 333.394 94.0691 332.034 94.0691H327.354V104.589H321.954ZM332.114 88.9491C333.527 88.9491 334.594 88.5491 335.314 87.7491C336.034 86.9491 336.394 86.0291 336.394 84.9891C336.394 84.4824 336.301 83.9891 336.114 83.5091C335.954 83.0291 335.687 82.6158 335.314 82.2691C334.967 81.8958 334.527 81.6024 333.994 81.3891C333.461 81.1758 332.834 81.0691 332.114 81.0691H327.354V88.9491H332.114ZM347.906 82.1491C347.453 82.1491 347.013 82.0691 346.586 81.9091C346.186 81.7224 345.826 81.4824 345.506 81.1891C345.213 80.8691 344.973 80.5091 344.786 80.1091C344.626 79.7091 344.546 79.2691 344.546 78.7891C344.546 78.3091 344.626 77.8691 344.786 77.4691C344.973 77.0691 345.213 76.7224 345.506 76.4291C345.826 76.1091 346.186 75.8691 346.586 75.7091C347.013 75.5224 347.453 75.4291 347.906 75.4291C348.839 75.4291 349.639 75.7624 350.306 76.4291C350.973 77.0691 351.306 77.8558 351.306 78.7891C351.306 79.7224 350.973 80.5224 350.306 81.1891C349.639 81.8291 348.839 82.1491 347.906 82.1491ZM345.306 104.589V84.9891H350.546V104.589H345.306ZM363.097 105.229C361.817 105.229 360.671 105.069 359.657 104.749C358.671 104.429 357.804 104.016 357.057 103.509C356.337 102.976 355.724 102.376 355.217 101.709C354.711 101.016 354.324 100.322 354.057 99.6291L358.737 97.6291C359.191 98.6424 359.791 99.4024 360.537 99.9091C361.311 100.389 362.164 100.629 363.097 100.629C364.057 100.629 364.817 100.456 365.377 100.109C365.937 99.7624 366.217 99.3491 366.217 98.8691C366.217 98.3358 365.977 97.9091 365.497 97.5891C365.044 97.2424 364.244 96.9358 363.097 96.6691L360.337 96.0691C359.724 95.9358 359.084 95.7224 358.417 95.4291C357.777 95.1358 357.191 94.7624 356.657 94.3091C356.124 93.8558 355.684 93.3091 355.337 92.6691C354.991 92.0291 354.817 91.2824 354.817 90.4291C354.817 89.4691 355.017 88.6158 355.417 87.8691C355.844 87.1224 356.417 86.4958 357.137 85.9891C357.857 85.4558 358.697 85.0558 359.657 84.7891C360.644 84.4958 361.697 84.3491 362.817 84.3491C364.684 84.3491 366.351 84.7224 367.817 85.4691C369.284 86.1891 370.364 87.3491 371.057 88.9491L366.537 90.7891C366.164 90.0158 365.617 89.4558 364.897 89.1091C364.177 88.7624 363.457 88.5891 362.737 88.5891C361.991 88.5891 361.337 88.7491 360.777 89.0691C360.217 89.3624 359.937 89.7491 359.937 90.2291C359.937 90.6824 360.164 91.0424 360.617 91.3091C361.097 91.5758 361.737 91.8158 362.537 92.0291L365.537 92.7491C367.537 93.2291 369.017 94.0024 369.977 95.0691C370.964 96.1091 371.457 97.3491 371.457 98.7891C371.457 99.6424 371.257 100.456 370.857 101.229C370.457 102.002 369.884 102.696 369.137 103.309C368.417 103.896 367.537 104.362 366.497 104.709C365.484 105.056 364.351 105.229 363.097 105.229ZM386.949 102.509H386.629C386.015 103.256 385.269 103.896 384.389 104.429C383.535 104.962 382.429 105.229 381.069 105.229C380.055 105.229 379.095 105.056 378.189 104.709C377.309 104.389 376.535 103.936 375.869 103.349C375.202 102.762 374.682 102.056 374.309 101.229C373.935 100.402 373.749 99.4958 373.749 98.5091C373.749 97.4958 373.949 96.5891 374.349 95.7891C374.749 94.9624 375.309 94.2558 376.029 93.6691C376.749 93.0824 377.589 92.6424 378.549 92.3491C379.535 92.0291 380.602 91.8691 381.749 91.8691C383.029 91.8691 384.082 91.9758 384.909 92.1891C385.735 92.3758 386.415 92.5758 386.949 92.7891V92.1891C386.949 91.1491 386.535 90.2958 385.709 89.6291C384.882 88.9358 383.855 88.5891 382.629 88.5891C380.815 88.5891 379.282 89.3491 378.029 90.8691L374.229 88.2691C376.309 85.6558 379.149 84.3491 382.749 84.3491C385.789 84.3491 388.109 85.0691 389.709 86.5091C391.309 87.9224 392.109 90.0291 392.109 92.8291V104.589H386.949V102.509ZM386.949 96.6291C386.335 96.3358 385.695 96.1091 385.029 95.9491C384.389 95.7624 383.682 95.6691 382.909 95.6691C381.655 95.6691 380.682 95.9491 379.989 96.5091C379.322 97.0424 378.989 97.7091 378.989 98.5091C378.989 99.3091 379.309 99.9491 379.949 100.429C380.615 100.909 381.375 101.149 382.229 101.149C382.922 101.149 383.562 101.029 384.149 100.789C384.735 100.522 385.229 100.189 385.629 99.7891C386.055 99.3624 386.375 98.8824 386.589 98.3491C386.829 97.7891 386.949 97.2158 386.949 96.6291ZM404.664 104.589V99.8291C406.237 98.2824 407.691 96.8424 409.024 95.5091C409.584 94.9491 410.157 94.3758 410.744 93.7891C411.331 93.2024 411.877 92.6558 412.384 92.1491C412.891 91.6424 413.344 91.1891 413.744 90.7891C414.144 90.3624 414.451 90.0291 414.664 89.7891C415.091 89.2824 415.464 88.8291 415.784 88.4291C416.131 88.0291 416.397 87.6424 416.584 87.2691C416.797 86.8691 416.957 86.4824 417.064 86.1091C417.171 85.7091 417.224 85.2824 417.224 84.8291C417.224 83.9491 416.877 83.1891 416.184 82.5491C415.491 81.8824 414.544 81.5491 413.344 81.5491C412.144 81.5491 411.211 81.8958 410.544 82.5891C409.877 83.2558 409.424 84.0158 409.184 84.8691L404.424 82.9091C404.637 82.1891 404.984 81.4558 405.464 80.7091C405.944 79.9358 406.557 79.2558 407.304 78.6691C408.051 78.0558 408.931 77.5624 409.944 77.1891C410.984 76.7891 412.144 76.5891 413.424 76.5891C414.811 76.5891 416.064 76.8024 417.184 77.2291C418.304 77.6291 419.251 78.1891 420.024 78.9091C420.797 79.6291 421.397 80.4824 421.824 81.4691C422.251 82.4291 422.464 83.4691 422.464 84.5891C422.464 86.2958 422.037 87.8691 421.184 89.3091C420.357 90.7224 419.344 92.0424 418.144 93.2691L414.704 96.7091C413.797 97.6158 412.771 98.6291 411.624 99.7491L411.784 99.9891H422.864V104.589H404.664ZM437.861 105.229C436.101 105.229 434.514 104.869 433.101 104.149C431.688 103.402 430.474 102.389 429.461 101.109C428.474 99.8291 427.714 98.3224 427.181 96.5891C426.648 94.8291 426.381 92.9358 426.381 90.9091C426.381 88.8824 426.648 87.0024 427.181 85.2691C427.714 83.5091 428.474 81.9891 429.461 80.7091C430.474 79.4291 431.688 78.4291 433.101 77.7091C434.514 76.9624 436.101 76.5891 437.861 76.5891C439.621 76.5891 441.208 76.9624 442.621 77.7091C444.034 78.4291 445.234 79.4291 446.221 80.7091C447.234 81.9891 448.008 83.5091 448.541 85.2691C449.074 87.0024 449.341 88.8824 449.341 90.9091C449.341 92.9358 449.074 94.8291 448.541 96.5891C448.008 98.3224 447.234 99.8291 446.221 101.109C445.234 102.389 444.034 103.402 442.621 104.149C441.208 104.869 439.621 105.229 437.861 105.229ZM437.861 100.269C438.821 100.269 439.688 100.042 440.461 99.5891C441.234 99.1091 441.888 98.4558 442.421 97.6291C442.981 96.7758 443.394 95.7758 443.661 94.6291C443.954 93.4824 444.101 92.2424 444.101 90.9091C444.101 89.5491 443.954 88.3091 443.661 87.1891C443.394 86.0424 442.981 85.0558 442.421 84.2291C441.888 83.3758 441.234 82.7224 440.461 82.2691C439.688 81.7891 438.821 81.5491 437.861 81.5491C436.874 81.5491 435.994 81.7891 435.221 82.2691C434.448 82.7224 433.794 83.3758 433.261 84.2291C432.728 85.0558 432.314 86.0424 432.021 87.1891C431.754 88.3091 431.621 89.5491 431.621 90.9091C431.621 92.2424 431.754 93.4824 432.021 94.6291C432.314 95.7758 432.728 96.7758 433.261 97.6291C433.794 98.4558 434.448 99.1091 435.221 99.5891C435.994 100.042 436.874 100.269 437.861 100.269ZM452.555 104.589V99.8291C454.128 98.2824 455.581 96.8424 456.915 95.5091C457.475 94.9491 458.048 94.3758 458.635 93.7891C459.221 93.2024 459.768 92.6558 460.275 92.1491C460.781 91.6424 461.235 91.1891 461.635 90.7891C462.035 90.3624 462.341 90.0291 462.555 89.7891C462.981 89.2824 463.355 88.8291 463.675 88.4291C464.021 88.0291 464.288 87.6424 464.475 87.2691C464.688 86.8691 464.848 86.4824 464.955 86.1091C465.061 85.7091 465.115 85.2824 465.115 84.8291C465.115 83.9491 464.768 83.1891 464.075 82.5491C463.381 81.8824 462.435 81.5491 461.235 81.5491C460.035 81.5491 459.101 81.8958 458.435 82.5891C457.768 83.2558 457.315 84.0158 457.075 84.8691L452.315 82.9091C452.528 82.1891 452.875 81.4558 453.355 80.7091C453.835 79.9358 454.448 79.2558 455.195 78.6691C455.941 78.0558 456.821 77.5624 457.835 77.1891C458.875 76.7891 460.035 76.5891 461.315 76.5891C462.701 76.5891 463.955 76.8024 465.075 77.2291C466.195 77.6291 467.141 78.1891 467.915 78.9091C468.688 79.6291 469.288 80.4824 469.715 81.4691C470.141 82.4291 470.355 83.4691 470.355 84.5891C470.355 86.2958 469.928 87.8691 469.075 89.3091C468.248 90.7224 467.235 92.0424 466.035 93.2691L462.595 96.7091C461.688 97.6158 460.661 98.6291 459.515 99.7491L459.675 99.9891H470.755V104.589H452.555ZM486.751 104.589V99.5491H474.111V95.3091L486.271 77.2291H491.951V94.6691H495.391V99.5491H491.951V104.589H486.751ZM486.751 85.0291H486.431L479.911 94.6691H486.751V85.0291Z" fill="#E0E0E0"/>
<path fill-rule="evenodd" clip-rule="evenodd" d="M112.191 8.41481C110.436 8.16812 108.813 9.39108 108.566 11.1463C108.32 12.9016 109.543 14.5245 111.298 14.7712L113.417 15.069L110.885 33.0788L114.019 33.5192L115.765 21.0896C116.094 18.7493 118.258 17.1187 120.599 17.4476C122.939 17.7765 124.57 19.9404 124.241 22.2807L122.494 34.7103L126.025 35.2066L127.772 22.777C128.101 20.4367 130.265 18.8061 132.605 19.135C134.945 19.4639 136.576 21.6278 136.247 23.9681L134.5 36.3977L138.203 36.918L139.95 24.4885C140.278 22.1481 142.442 20.5175 144.783 20.8465C147.123 21.1754 148.754 23.3392 148.425 25.6796L146.678 38.1091L149.73 38.5381L152.261 20.5283L154.38 20.826C156.135 21.0727 157.758 19.8498 158.005 18.0945C158.252 16.3392 157.029 14.7163 155.273 14.4696L112.191 8.41481Z" fill="#E0E0E0"/>
<path fill-rule="evenodd" clip-rule="evenodd" d="M103.9 32.0112C101.95 31.7371 100.147 33.096 99.8728 35.0463C99.5987 36.9966 100.958 38.7998 102.908 39.0739L106.439 39.5702L104.007 56.8737L107.109 57.3097L108.898 44.5818C109.227 42.2414 111.391 40.6108 113.731 40.9397C116.072 41.2686 117.702 43.4325 117.373 45.7729L115.585 58.5008L117.683 58.7957L119.472 46.0677C119.801 43.7274 121.964 42.0968 124.305 42.4257C126.645 42.7546 128.276 44.9185 127.947 47.2589L126.158 59.9868L128.277 60.2846L130.066 47.5566C130.395 45.2163 132.558 43.5857 134.899 43.9146C137.239 44.2435 138.87 46.4074 138.541 48.7477L136.752 61.4757L138.871 61.7735L140.66 49.0455C140.989 46.7052 143.152 45.0746 145.493 45.4035C147.833 45.7324 149.464 47.8963 149.135 50.2366L147.346 62.9646L149.915 63.3256L152.346 46.022L155.878 46.5183C157.828 46.7924 159.631 45.4336 159.906 43.4833C160.18 41.533 158.821 39.7298 156.87 39.4557L103.9 32.0112Z" fill="#E0E0E0"/>
<path fill-rule="evenodd" clip-rule="evenodd" d="M100.486 56.3081C98.5356 56.034 96.7323 57.3928 96.4582 59.3431C96.1841 61.2934 97.543 63.0967 99.4933 63.3708L103.025 63.8671L100.593 81.1706L103.697 81.6069L105.481 68.9162C105.81 66.5758 107.974 64.9452 110.314 65.2741C112.655 65.603 114.285 67.7669 113.956 70.1073L112.173 82.7981L114.11 83.0703L115.893 70.3795C116.222 68.0391 118.386 66.4085 120.726 66.7374C123.067 67.0663 124.697 69.2302 124.368 71.5706L122.585 84.2614L124.704 84.5592L126.487 71.8684C126.816 69.528 128.98 67.8974 131.32 68.2263C133.661 68.5552 135.291 70.7191 134.962 73.0595L133.179 85.7503L135.298 86.048L137.081 73.3573C137.41 71.0169 139.574 69.3863 141.914 69.7152C144.255 70.0441 145.885 72.208 145.556 74.5484L143.773 87.2392L146.5 87.6225L148.932 70.3189L152.463 70.8152C154.414 71.0893 156.217 69.7305 156.491 67.7802C156.765 65.8299 155.406 64.0266 153.456 63.7526L100.486 56.3081Z" fill="#E0E0E0"/>
<path fill-rule="evenodd" clip-rule="evenodd" d="M97.1187 80.6184C95.1684 80.3443 93.3652 81.7031 93.0911 83.6534C92.817 85.6037 94.1758 87.407 96.1261 87.6811L99.6576 88.1774L97.2753 105.128L100.367 105.562L102.112 93.144C102.441 90.8037 104.605 89.1731 106.945 89.502C109.286 89.8309 110.916 91.9948 110.587 94.3352L108.842 106.753L110.779 107.026L112.524 94.6074C112.853 92.267 115.017 90.6364 117.357 90.9653C119.698 91.2942 121.328 93.4581 120.999 95.7985L119.254 108.217L121.373 108.514L123.118 96.0962C123.447 93.7559 125.611 92.1253 127.951 92.4542C130.292 92.7831 131.922 94.947 131.593 97.2874L129.848 109.706L131.967 110.003L133.712 97.5851C134.041 95.2448 136.205 93.6142 138.545 93.9431C140.886 94.272 142.516 96.4359 142.187 98.7762L140.442 111.194L143.183 111.58L145.565 94.6292L149.096 95.1255C151.046 95.3996 152.85 94.0408 153.124 92.0905C153.398 90.1402 152.039 88.337 150.089 88.0629L97.1187 80.6184Z" fill="#E0E0E0"/>
<path fill-rule="evenodd" clip-rule="evenodd" d="M92.7024 104.266C90.7521 103.992 88.9489 105.351 88.6748 107.301C88.4007 109.252 89.7595 111.055 91.7098 111.329L96.2216 111.963L93.8091 129.129L97.1751 129.602L98.9538 116.946C99.2827 114.606 101.447 112.975 103.787 113.304C106.127 113.633 107.758 115.797 107.429 118.137L105.65 130.793L107.587 131.065L109.366 118.409C109.695 116.069 111.859 114.438 114.199 114.767C116.539 115.096 118.17 117.26 117.841 119.6L116.062 132.256L118.181 132.554L119.96 119.898C120.289 117.558 122.453 115.927 124.793 116.256C127.133 116.585 128.764 118.749 128.435 121.089L126.656 133.745L128.662 134.027L130.441 121.371C130.77 119.031 132.934 117.4 135.274 117.729C137.614 118.058 139.245 120.222 138.916 122.562L137.137 135.218L139.716 135.581L142.129 118.415L144.68 118.773C146.63 119.047 148.433 117.689 148.708 115.738C148.982 113.788 147.623 111.985 145.672 111.711L92.7024 104.266Z" fill="#E0E0E0"/>
<path fill-rule="evenodd" clip-rule="evenodd" d="M86.035 131.547C86.3091 129.597 88.1123 128.238 90.0626 128.512L143.033 135.957C144.983 136.231 146.342 138.034 146.068 139.985C145.794 141.935 143.99 143.294 142.04 143.02L138.509 142.523L135.193 166.114L138.454 166.114C139.835 166.114 140.954 167.233 140.954 168.614C140.954 169.994 139.835 171.114 138.454 171.114L82.8313 171.114C81.4506 171.114 80.3313 169.994 80.3313 168.614C80.3313 167.233 81.4506 166.114 82.8313 166.114L87.4183 166.114L92.5798 136.068L89.0701 135.575C87.1198 135.301 85.7609 133.498 86.035 131.547ZM120.483 166.114L132.391 166.114L134.745 149.867C135.198 146.739 132.978 143.832 129.848 143.393C126.772 142.96 123.872 145.063 123.378 148.13L120.483 166.114ZM90.3162 166.114L93.7299 144.54C94.2164 141.466 97.1147 139.354 100.197 139.787C103.326 140.227 105.54 143.131 105.088 146.258L102.259 165.863L90.3162 166.114ZM115.036 141.501C111.956 141.068 109.057 143.176 108.567 146.247L105.4 166.114L117.325 165.982L119.929 147.973C120.382 144.846 118.165 141.941 115.036 141.501Z" fill="#E0E0E0"/>
<path d="M8 89.1838L59.9615 59.1838" stroke="#E0E0E0" stroke-width="15" stroke-linecap="round"/>
<path d="M8 89.1838L59.9615 119.184" stroke="#E0E0E0" stroke-width="15" stroke-linecap="round"/>
<path d="M565.217 90.9945L513.255 120.995" stroke="#E0E0E0" stroke-width="15" stroke-linecap="round"/>
<path d="M565.217 90.9945L513.255 60.9945" stroke="#E0E0E0" stroke-width="15" stroke-linecap="round"/>
</svg>
