<?xml version="1.0" encoding="UTF-8" standalone="no"?>
<svg
   width="199.16544"
   height="28.77009"
   viewBox="0 0 760.81196 162.73082"
   fill="none"
   version="1.1"
   id="svg11"
   sodipodi:docname="logo-monochrome-red.svg"
   inkscape:version="1.3.2 (091e20e, 2023-11-25)"
   xmlns:inkscape="http://www.inkscape.org/namespaces/inkscape"
   xmlns:sodipodi="http://sodipodi.sourceforge.net/DTD/sodipodi-0.dtd"
   xmlns="http://www.w3.org/2000/svg"
   xmlns:svg="http://www.w3.org/2000/svg">
  <defs
     id="defs11" />
  <sodipodi:namedview
     id="namedview11"
     pagecolor="#ffffff"
     bordercolor="#666666"
     borderopacity="1.0"
     inkscape:showpageshadow="2"
     inkscape:pageopacity="0.0"
     inkscape:pagecheckerboard="0"
     inkscape:deskcolor="#d1d1d1"
     inkscape:zoom="2.9314281"
     inkscape:cx="135.59944"
     inkscape:cy="-5.1169599"
     inkscape:window-width="1920"
     inkscape:window-height="833"
     inkscape:window-x="0"
     inkscape:window-y="25"
     inkscape:window-maximized="0"
     inkscape:current-layer="svg11" />
  <path
     fill-rule="evenodd"
     clip-rule="evenodd"
     d="m -71.167761,0.03163404 c -1.755,-0.24669 -3.378,0.97626996 -3.625,2.73148996 -0.246,1.7553 0.977,3.3782 2.732,3.6249 l 2.119,0.2978 -2.532,18.0098 3.134,0.4404 1.746,-12.4296 c 0.329,-2.3403 2.493,-3.9709 4.834,-3.642 2.34,0.3289 3.971,2.4928 3.642,4.8331 l -1.747,12.4296 3.531,0.4963 1.747,-12.4296 c 0.329,-2.3403 2.493,-3.9709 4.833,-3.642 2.34,0.3289 3.971,2.4928 3.642,4.8331 l -1.747,12.4296 3.703,0.5203 1.747,-12.4295 c 0.328,-2.3404 2.492,-3.971 4.833,-3.642 2.34,0.3289 3.971,2.4927 3.642,4.8331 l -1.747,12.4295 3.052,0.429 2.531,-18.0098 2.119,0.2977 c 1.755,0.2467 3.378,-0.9762 3.625,-2.7315 0.247,-1.7553 -0.976,-3.3782 -2.732,-3.6249 z"
     fill="#c62828"
     id="path2" />
  <path
     fill-rule="evenodd"
     clip-rule="evenodd"
     d="m -79.458761,23.628024 c -1.95,-0.2741 -3.753,1.0848 -4.0272,3.0351 -0.2741,1.9503 1.0852,3.7535 3.0352,4.0276 l 3.531,0.4963 -2.432,17.3035 3.102,0.436 1.789,-12.7279 c 0.329,-2.3404 2.493,-3.971 4.833,-3.6421 2.341,0.3289 3.971,2.4928 3.642,4.8332 l -1.788,12.7279 2.098,0.2949 1.789,-12.728 c 0.329,-2.3403 2.492,-3.9709 4.833,-3.642 2.34,0.3289 3.971,2.4928 3.642,4.8332 l -1.789,12.7279 2.119,0.2978 1.789,-12.728 c 0.329,-2.3403 2.492,-3.9709 4.833,-3.642 2.34,0.3289 3.971,2.4928 3.642,4.8331 l -1.789,12.728 2.119,0.2978 1.789,-12.728 c 0.329,-2.3403 2.492,-3.9709 4.833,-3.642 2.34,0.3289 3.971,2.4928 3.642,4.8331 l -1.789,12.728 2.569,0.361 2.431,-17.3036 3.532,0.4963 c 1.95,0.2741 3.753,-1.0847 4.028,-3.035 0.274,-1.9503 -1.085,-3.7535 -3.036,-4.0276 z"
     fill="#c62828"
     id="path3" />
  <path
     fill-rule="evenodd"
     clip-rule="evenodd"
     d="m -82.872761,47.924924 c -1.9504,-0.2741 -3.7537,1.0847 -4.0278,3.035 -0.2741,1.9503 1.0848,3.7536 3.0351,4.0277 l 3.5317,0.4963 -2.432,17.3035 3.104,0.4363 1.784,-12.6907 c 0.329,-2.3404 2.493,-3.971 4.833,-3.6421 2.341,0.3289 3.971,2.4928 3.642,4.8332 l -1.783,12.6908 1.937,0.2722 1.783,-12.6908 c 0.329,-2.3404 2.493,-3.971 4.833,-3.6421 2.341,0.3289 3.971,2.4928 3.642,4.8332 l -1.783,12.6908 2.119,0.2978 1.783,-12.6908 c 0.329,-2.3404 2.493,-3.971 4.833,-3.6421 2.341,0.3289 3.971,2.4928 3.642,4.8332 l -1.783,12.6908 2.119,0.2977 1.783,-12.6907 c 0.329,-2.3404 2.493,-3.971 4.833,-3.6421 2.341,0.3289 3.971,2.4928 3.642,4.8332 l -1.783,12.6908 2.727,0.3833 2.432,-17.3036 3.531,0.4963 c 1.951,0.2741 3.754,-1.0847 4.028,-3.035 0.274,-1.9503 -1.085,-3.7536 -3.035,-4.0276 z"
     fill="#c62828"
     id="path4" />
  <path
     fill-rule="evenodd"
     clip-rule="evenodd"
     d="m -86.240061,72.235224 c -1.9503,-0.2741 -3.7535,1.0847 -4.0276,3.035 -0.2741,1.9503 1.0847,3.7536 3.035,4.0277 l 3.5315,0.4963 -2.3823,16.9506 3.0917,0.434 1.745,-12.418 c 0.329,-2.3403 2.493,-3.9709 4.833,-3.642 2.341,0.3289 3.971,2.4928 3.642,4.8332 l -1.745,12.4178 1.937,0.273 1.745,-12.4186 c 0.329,-2.3404 2.493,-3.971 4.833,-3.6421 2.341,0.3289 3.971,2.4928 3.642,4.8332 l -1.745,12.4185 2.119,0.296996 1.745,-12.417796 c 0.329,-2.3403 2.493,-3.9709 4.833,-3.642 2.341,0.3289 3.971,2.4928 3.642,4.8332 l -1.745,12.418596 2.119,0.297 1.745,-12.417896 c 0.329,-2.3403 2.493,-3.9709 4.833,-3.642 2.341,0.3289 3.971,2.4928 3.642,4.8331 l -1.745,12.417796 2.741,0.386 2.382,-16.950796 3.531,0.4963 c 1.95,0.2741 3.754,-1.0847 4.028,-3.035 0.274,-1.9503 -1.085,-3.7535 -3.035,-4.0276 z"
     fill="#c62828"
     id="path5" />
  <path
     fill-rule="evenodd"
     clip-rule="evenodd"
     d="m -90.656361,95.882824 c -1.9503,-0.274 -3.7535,1.085 -4.0276,3.035 -0.2741,1.950996 1.0847,3.753996 3.035,4.027996 l 4.5118,0.634 -2.4125,17.166 3.366,0.473 1.7787,-12.656 c 0.3289,-2.34 2.4932,-3.971 4.8332,-3.642 2.34,0.329 3.971,2.493 3.642,4.833 l -1.779,12.656 1.937,0.272 1.779,-12.656 c 0.329,-2.34 2.493,-3.971 4.833,-3.642 2.34,0.329 3.971,2.493 3.642,4.833 l -1.779,12.656 2.119,0.298 1.779,-12.656 c 0.329,-2.34 2.493,-3.971 4.833,-3.642 2.34,0.329 3.971,2.493 3.642,4.833 l -1.779,12.656 2.006,0.282 1.779,-12.656 c 0.329,-2.34 2.493,-3.971 4.833,-3.642 2.34,0.329 3.971,2.493 3.642,4.833 l -1.779,12.656 2.579,0.363 2.413,-17.166 2.551,0.358 c 1.95,0.274 3.753,-1.084 4.028,-3.035 0.274,-1.95 -1.085,-3.753 -3.036,-4.027 z"
     fill="#c62828"
     id="path6" />
  <path
     fill-rule="evenodd"
     clip-rule="evenodd"
     d="m -97.323761,123.16382 c 0.2741,-1.95 2.0773,-3.309 4.0276,-3.035 l 52.9704,7.445 c 1.95,0.274 3.309,2.077 3.035,4.028 -0.274,1.95 -2.078,3.309 -4.028,3.035 l -3.531,-0.497 -3.316,23.591 h 3.261 c 1.381,0 2.5,1.119 2.5,2.5 0,1.38 -1.119,2.5 -2.5,2.5 h -55.622699 c -1.3807,0 -2.5,-1.12 -2.5,-2.5 0,-1.381 1.1193,-2.5 2.5,-2.5 h 4.586999 l 5.1615,-30.046 -3.5097,-0.493 c -1.9503,-0.274 -3.3092,-2.077 -3.0351,-4.028 z m 34.448,34.567 h 11.908 l 2.354,-16.247 c 0.453,-3.128 -1.767,-6.035 -4.897,-6.474 -3.076,-0.433 -5.976,1.67 -6.47,4.737 z m -30.1668,0 3.4137,-21.574 c 0.4865,-3.074 3.3848,-5.186 6.4671,-4.753 3.129,0.44 5.343,3.344 4.891,6.471 l -2.829,19.605 z m 24.7198,-24.613 c -3.08,-0.433 -5.979,1.675 -6.469,4.746 l -3.167,19.867 11.925,-0.132 2.604,-18.009 c 0.453,-3.127 -1.764,-6.032 -4.893,-6.472 z"
     fill="#c62828"
     id="path7" />
  <path
     d="m -175.35876,80.800624 51.9615,-30"
     stroke="#c62828"
     stroke-width="15"
     stroke-linecap="round"
     id="path8" />
  <path
     d="m -175.35876,80.800624 51.9615,30.000196"
     stroke="#c62828"
     stroke-width="15"
     stroke-linecap="round"
     id="path9" />
  <path
     d="m 936.17074,82.611424 -51.962,30.000396"
     stroke="#c62828"
     stroke-width="15"
     stroke-linecap="round"
     id="path10" />
  <path
     d="m 936.17074,82.611424 -51.962,-30"
     stroke="#c62828"
     stroke-width="15"
     stroke-linecap="round"
     id="path11" />
  <g
     id="text11"
     style="font-size:105.583px;line-height:1.25;fill:#c62828;stroke-width:5.65625"
     aria-label="DevFest Pisa 2024">
    <path
       style="font-family:'Product Sans';-inkscape-font-specification:'Product Sans'"
       d="M -2.8767647,119.75716 V 44.159728 H 20.245912 q 17.315612,0 27.768329,10.452717 10.5583,10.452717 10.5583,27.345997 0,16.998863 -10.5583,27.451578 -10.452717,10.34714 -27.768329,10.34714 z M 6.8368713,53.451032 V 110.46585 H 20.245912 q 13.197875,0 20.799851,-7.49639 7.601976,-7.601977 7.601976,-21.011018 0,-13.303458 -7.601976,-20.905434 -7.601976,-7.601976 -20.799851,-7.601976 z M 90.036336,121.44648 q -11.402964,0 -18.793774,-7.81314 -7.39081,-7.81314 -7.39081,-19.744019 0,-11.825296 7.179644,-19.638438 7.179644,-7.918725 18.371442,-7.918725 11.508542,0 18.265862,7.496393 6.86289,7.39081 6.86289,20.799851 l -0.10558,1.05583 H 73.776554 q 0.211166,7.601978 5.067984,12.247628 4.856818,4.64565 11.61413,4.64565 9.291304,0 14.570452,-9.2913 l 8.65781,4.22332 q -3.48424,6.54614 -9.71364,10.24155 -6.123812,3.6954 -13.936954,3.6954 z M 74.515635,87.659924 h 29.668825 q -0.42233,-5.384733 -4.434488,-8.868972 -3.906571,-3.589822 -10.5583,-3.589822 -5.490316,0 -9.50247,3.378656 -3.906571,3.378656 -5.173567,9.080138 z m 72.957755,32.097236 h -9.71364 L 116.85432,68.021486 h 10.5583 l 15.20395,40.121544 h 0.21117 l 15.41512,-40.121544 h 10.34713 z m 38.85446,-32.413985 v 32.413985 h -9.71363 V 44.159728 h 44.13369 v 9.291304 h -34.42006 v 24.812005 h 31.04141 v 9.080138 z m 63.772,34.103305 q -11.40296,0 -18.79377,-7.81314 -7.39081,-7.81314 -7.39081,-19.744019 0,-11.825296 7.17964,-19.638438 7.17964,-7.918725 18.37144,-7.918725 11.50855,0 18.26586,7.496393 6.8629,7.39081 6.8629,20.799851 l -0.10559,1.05583 h -40.64945 q 0.21116,7.601978 5.06798,12.247628 4.85682,4.64565 11.61413,4.64565 9.29131,0 14.57046,-9.2913 l 8.6578,4.22332 q -3.48424,6.54614 -9.71363,10.24155 -6.12382,3.6954 -13.93696,3.6954 z m -15.5207,-33.786556 h 29.66882 q -0.42233,-5.384733 -4.43448,-8.868972 -3.90657,-3.589822 -10.5583,-3.589822 -5.49032,0 -9.50247,3.378656 -3.90657,3.378656 -5.17357,9.080138 z m 89.0063,17.737946 q 0,6.75731 -5.91264,11.40296 -5.91265,4.64565 -14.88721,4.64565 -7.81314,0 -13.72579,-4.01215 -5.91264,-4.11774 -8.44664,-10.76947 l 8.65781,-3.6954 q 1.90049,4.64565 5.49032,7.28523 3.6954,2.53399 8.0243,2.53399 4.64566,0 7.70756,-2.00608 3.16749,-2.00608 3.16749,-4.75123 0,-4.9624 -7.60197,-7.285231 l -8.86898,-2.217243 q -15.09836,-3.800988 -15.09836,-14.570454 0,-7.074061 5.70148,-11.297381 5.80706,-4.328903 14.78162,-4.328903 6.86289,0 12.35321,3.273073 5.5959,3.273073 7.81314,8.763389 l -8.65781,3.589822 q -1.47816,-3.273073 -4.85681,-5.067984 -3.27308,-1.900494 -7.39081,-1.900494 -3.80099,0 -6.8629,1.900494 -2.95632,1.900494 -2.95632,4.645652 0,4.434486 8.34105,6.33498 l 7.81315,2.006077 q 15.41511,3.800988 15.41511,15.520703 z m 28.4019,15.20395 q -6.33498,0 -10.5583,-3.90657 -4.11773,-3.90657 -4.22332,-10.87505 V 76.890458 h -9.08014 v -8.868972 h 9.08014 v -15.83745 h 9.71364 v 15.83745 h 12.66996 v 8.868972 h -12.66996 v 25.762252 q 0,5.17357 2.00608,7.07406 2.00607,1.79491 4.54006,1.79491 1.16142,0 2.21725,-0.21116 1.16141,-0.31675 2.11166,-0.73908 l 3.0619,8.6578 q -3.80098,1.37258 -8.86897,1.37258 z"
       id="path1" />
    <path
       style="font-weight:bold;font-family:'Product Sans';-inkscape-font-specification:'Product Sans'"
       d="M 393.79816,119.75716 V 44.159728 h 26.60692 q 5.38473,0 10.03038,1.794911 4.75124,1.689328 8.23548,4.856818 3.48424,3.16749 5.49031,7.601976 2.00608,4.328903 2.00608,9.608053 0,5.384733 -2.00608,9.819219 -2.00607,4.328903 -5.49031,7.496393 -3.48424,3.16749 -8.23548,4.962401 -4.64565,1.689328 -10.03038,1.689328 h -12.35321 v 27.768333 z m 26.81808,-41.282957 q 5.5959,0 8.44664,-3.16749 2.85075,-3.16749 2.85075,-7.285227 0,-2.006077 -0.73909,-3.906571 -0.63349,-1.900494 -2.11166,-3.273073 -1.37257,-1.478162 -3.48423,-2.322826 -2.11166,-0.844664 -4.96241,-0.844664 h -12.56437 v 20.799851 z m 41.7054,-17.94911 q -1.79491,0 -3.48424,-0.633498 -1.58374,-0.739081 -2.85074,-1.900494 -1.16141,-1.266996 -1.90049,-2.850741 -0.6335,-1.583745 -0.6335,-3.484239 0,-1.900494 0.6335,-3.484239 0.73908,-1.583745 1.90049,-2.745158 1.267,-1.266996 2.85074,-1.900494 1.68933,-0.739081 3.48424,-0.739081 3.69541,0 6.33498,2.639575 2.63958,2.533992 2.63958,6.229397 0,3.695405 -2.63958,6.33498 -2.63957,2.533992 -6.33498,2.533992 z m -6.86289,59.232067 V 68.021486 h 13.83137 v 51.735674 z m 46.9845,1.68932 q -5.06798,0 -9.08013,-1.26699 -3.90657,-1.267 -6.8629,-3.27307 -2.85074,-2.11166 -4.85682,-4.75124 -2.00607,-2.74516 -3.0619,-5.49032 l 12.35321,-5.27915 q 1.79491,4.01216 4.75123,6.01824 3.06191,1.90049 6.75731,1.90049 3.80099,0 6.01824,-1.37258 2.21724,-1.37258 2.21724,-3.27307 0,-2.11166 -1.9005,-3.37866 -1.79491,-1.372578 -6.33498,-2.428408 l -7.28522,-1.583745 q -2.42841,-0.527915 -5.06799,-1.689328 -2.53399,-1.161413 -4.64565,-2.956324 -2.11166,-1.794911 -3.48424,-4.328903 -1.37258,-2.533992 -1.37258,-5.912648 0,-3.800988 1.58375,-6.757312 1.68933,-2.956324 4.54007,-4.962401 2.85074,-2.11166 6.65173,-3.16749 3.90657,-1.161413 8.34105,-1.161413 7.39081,0 13.19788,2.956324 5.80706,2.850741 8.55222,9.185721 l -11.93088,4.856818 q -1.47816,-3.061907 -4.3289,-4.434486 -2.85074,-1.372579 -5.70148,-1.372579 -2.95633,0 -5.17357,1.266996 -2.21724,1.161413 -2.21724,3.061907 0,1.794911 1.79491,2.850741 1.90049,1.05583 5.06798,1.900494 l 7.91873,1.900494 q 7.91872,1.900494 11.71971,6.123814 3.90657,4.117737 3.90657,9.819218 0,3.37866 -1.58374,6.44056 -1.58375,3.06191 -4.54007,5.49032 -2.85074,2.32283 -6.96848,3.69541 -4.01215,1.37257 -8.97456,1.37257 z m 62.92738,-7.17964 h -0.84466 q -2.42841,2.95632 -5.91265,5.06798 -3.37866,2.11166 -8.76339,2.11166 -4.01215,0 -7.60197,-1.37257 -3.48424,-1.267 -6.12382,-3.58983 -2.63957,-2.32282 -4.11774,-5.5959 -1.47816,-3.27307 -1.47816,-7.17964 0,-4.012154 1.58375,-7.179644 1.58374,-3.273073 4.43448,-5.595899 2.85074,-2.322826 6.65173,-3.484239 3.90657,-1.266996 8.44664,-1.266996 5.06799,0 8.34106,0.844664 3.27307,0.739081 5.38473,1.583745 v -1.583745 q 0,-4.117737 -3.27307,-6.757312 -3.27307,-2.745158 -8.12989,-2.745158 -7.17965,0 -12.14205,6.018231 l -10.03038,-6.862895 q 8.23547,-10.347134 22.48918,-10.347134 12.03646,0 18.37144,5.701482 6.33498,5.595899 6.33498,16.682114 v 31.041406 h -13.62021 z m 0,-15.520701 q -2.42841,-1.161413 -5.06798,-1.794911 -2.53399,-0.739081 -5.5959,-0.739081 -4.9624,0 -7.70756,2.217243 -2.63957,2.11166 -2.63957,5.27915 0,3.16749 2.53399,5.06798 2.63957,1.9005 6.01823,1.9005 2.74516,0 5.06798,-0.95025 2.32283,-1.05583 3.90657,-2.63957 1.68933,-1.68933 2.534,-3.80099 0.95024,-2.21724 0.95024,-4.540071 z m 18.68817,21.011021 z m 28.08496,0 v -12.56438 q 6.2294,-6.12381 11.50855,-11.402965 2.21724,-2.217243 4.54007,-4.540069 2.32283,-2.322826 4.3289,-4.328903 2.00608,-2.006077 3.58982,-3.589822 1.58375,-1.689328 2.42841,-2.639575 1.68933,-2.006077 2.95633,-3.589822 1.37258,-1.583745 2.11166,-3.061907 0.84466,-1.583745 1.26699,-3.061907 0.42234,-1.583745 0.42234,-3.378656 0,-3.484239 -2.74516,-6.018231 -2.74516,-2.639575 -7.4964,-2.639575 -4.75123,0 -7.39081,2.745158 -2.63957,2.639575 -3.58982,6.018231 L 611.51027,62.53117 q 0.84466,-2.850741 2.74515,-5.807065 1.9005,-3.061907 4.85682,-5.384733 2.95633,-2.428409 6.96848,-3.906571 4.11774,-1.583745 9.18572,-1.583745 5.49032,0 9.9248,1.689328 4.43449,1.583745 7.4964,4.434486 3.0619,2.850741 4.75123,6.757312 1.68933,3.800988 1.68933,8.235474 0,6.757312 -3.37866,12.458794 -3.27307,5.595899 -8.02431,10.452717 l -9.08013,9.080138 q -3.58983,3.589825 -8.12989,8.024305 l 0.42233,0.6335 h 29.24649 v 12.14205 z m 87.63394,1.68932 q -6.96847,0 -12.56437,-2.85074 -5.5959,-2.95632 -9.60806,-8.0243 -3.90657,-5.06799 -6.01823,-11.930884 -2.11166,-6.968478 -2.11166,-14.992786 0,-8.024308 2.11166,-14.887203 2.11166,-6.968478 6.01823,-12.036462 4.01216,-5.067984 9.60806,-7.918725 5.5959,-2.956324 12.56437,-2.956324 6.96848,0 12.56438,2.956324 5.5959,2.850741 9.50247,7.918725 4.01216,5.067984 6.12382,12.036462 2.11166,6.862895 2.11166,14.887203 0,8.024308 -2.11166,14.992786 -2.11166,6.862894 -6.12382,11.930884 -3.90657,5.06798 -9.50247,8.0243 -5.5959,2.85074 -12.56438,2.85074 z m 0,-13.09229 q 3.80099,0 6.8629,-1.79491 3.06191,-1.90049 5.17357,-5.17357 2.21724,-3.378652 3.27307,-7.918721 1.16141,-4.540069 1.16141,-9.819219 0,-5.384733 -1.16141,-9.819219 -1.05583,-4.540069 -3.27307,-7.813142 -2.11166,-3.378656 -5.17357,-5.173567 -3.06191,-1.900494 -6.8629,-1.900494 -3.90657,0 -6.96847,1.900494 -3.06191,1.794911 -5.17357,5.173567 -2.11166,3.273073 -3.27307,7.813142 -1.05583,4.434486 -1.05583,9.819219 0,5.27915 1.05583,9.819219 1.16141,4.540069 3.27307,7.918721 2.11166,3.27308 5.17357,5.17357 3.0619,1.79491 6.96847,1.79491 z m 38.749,11.40297 v -12.56438 q 6.22939,-6.12381 11.50854,-11.402965 2.21725,-2.217243 4.54007,-4.540069 2.32283,-2.322826 4.32891,-4.328903 2.00607,-2.006077 3.58982,-3.589822 1.58374,-1.689328 2.42841,-2.639575 1.68933,-2.006077 2.95632,-3.589822 1.37258,-1.583745 2.11166,-3.061907 0.84467,-1.583745 1.267,-3.061907 0.42233,-1.583745 0.42233,-3.378656 0,-3.484239 -2.74516,-6.018231 -2.74516,-2.639575 -7.49639,-2.639575 -4.75124,0 -7.39081,2.745158 -2.63958,2.639575 -3.58982,6.018231 L 737.8932,62.53117 q 0.84466,-2.850741 2.74516,-5.807065 1.90049,-3.061907 4.85682,-5.384733 2.95632,-2.428409 6.96847,-3.906571 4.11774,-1.583745 9.18572,-1.583745 5.49032,0 9.92481,1.689328 4.43448,1.583745 7.49639,4.434486 3.06191,2.850741 4.75124,6.757312 1.68932,3.800988 1.68932,8.235474 0,6.757312 -3.37865,12.458794 -3.27308,5.595899 -8.02431,10.452717 l -9.08014,9.080138 q -3.58982,3.589825 -8.12989,8.024305 l 0.42233,0.6335 h 29.24649 v 12.14205 z m 90.27345,0 V 106.4537 H 795.43592 V 95.2619 l 32.09724,-47.723516 h 14.99278 v 46.034188 h 9.08014 V 106.4537 h -9.08014 v 13.30346 z m 0,-51.630091 h -0.84466 l -17.21003,25.445503 h 18.05469 z"
       id="path12" />
  </g>
</svg>
