<?xml version="1.0" encoding="utf-8"?>
<!-- Generator: $$$/GeneralStr/196=Adobe Illustrator 27.6.0, SVG Export Plug-In . SVG Version: 6.00 Build 0)  -->
<svg version="1.1" id="Livello_1" xmlns="http://www.w3.org/2000/svg" xmlns:xlink="http://www.w3.org/1999/xlink" x="0px" y="0px"
	 viewBox="0 0 1920 1080" style="enable-background:new 0 0 1920 1080;" xml:space="preserve">
<style type="text/css">
	.st0{fill:#202320;}
	.st1{fill:#17E88F;}
</style>
<g>
	<path class="st0" d="M628.5,571c-2.9-5.5-4.8-11.2-4.8-17.3c-0.1-13.4,5.3-23.9,16.4-31.4c1.7-1.2,2.4-2.1,2-4.4
		c-4.1-26-8-52.1-12-78.1c-0.1-0.7-0.3-1.3-0.6-2.2c-19.3,3.3-36.4-1.1-50.7-14.6c-10.9-10.3-16.4-23.2-17.3-38.1
		c-1.7-27.4,18.8-53.3,45.8-57.9c29.5-5,56.7,11.9,64.7,40.2c8.1,28.6-8.1,61.7-41.3,70.2c1.6,6.3,3.1,12.7,4.7,19
		c4.9,19.2,9.8,38.3,14.6,57.5c0.7,2.8,1.7,3.4,4.6,2.9c7.2-1.2,14.2-0.2,20.9,3c1,0.5,1.9,0.9,2.9,1.4c0.2,0.1,0.4,0,0.9,0
		c29.6-57.5,59.3-115.2,89-172.8c-4.5-3.9-9.1-7.4-13.1-11.4c-14.5-14.5-22.5-32.1-23.9-52.6c-2.9-42.5,25.8-79.7,67.7-87.3
		c47.2-8.5,89.7,24,96.5,68.5c6.9,45-22.4,86.3-67.4,94.5c-14.4,2.6-28.7,1.4-42.5-3.8c-2.3-0.9-3.3-0.4-4.6,1.7
		c-33.2,53.9-66.5,107.7-99.8,161.6c-0.5,0.7-0.9,1.5-1,1.8c4.4,4.9,8.6,9.6,13.2,14.8c25-11.9,50.6-24.2,76.5-36.6
		c-7.2-11.7-8.9-23.7-4-36.4c3.5-9.1,9.8-15.7,18.5-20.1c16.9-8.6,38.1-3.1,48.8,12.5c11.1,16.3,8.3,37.7-6.3,50.9
		c-12.6,11.4-39.4,15.4-56.5-6.1c-11.6,7-23.3,14.1-34.9,21.1c-12.3,7.5-24.6,15-37,22.3c-2.1,1.2-2.7,2.5-2.5,4.9
		c1.8,19.8-10.7,36.5-30.4,39.6c-14.1,2.2-25.8-2.8-34.7-14.1c-0.6-0.8-1.2-1.6-1.9-2.6c-4.5,2.3-9.1,4.5-13.6,6.8
		c-28.7,14.5-57.5,29.1-86.2,43.6c-11.4,5.7-22.7,11.5-34.1,17.2c-2,1-2.3,2-1.6,4.1c9.9,32.7-9.6,64.9-43.1,71.6
		c-30.4,6-60.9-16.4-65-47.1c-3.9-29.5,15.7-56.9,44.1-62.1c22.7-4.2,41.5,3.2,55.8,21.5c1.3,1.7,2.3,2.3,4.5,1.4
		C535,609.8,580.5,591,626,572.2C626.7,571.9,627.4,571.5,628.5,571z M862.6,278.6c0-27.3-21.9-49.2-49.1-49.1
		c-27,0-48.9,22-48.9,49c0,27,21.8,48.8,48.6,49.1C839.8,328.1,863.1,305.7,862.6,278.6z M617.7,415.9c18.3,0,33.6-15.3,33.5-33.5
		c0-18.3-15.1-33.3-33.6-33.3c-18.5,0-33.6,15.1-33.5,33.4C584.2,400.7,599.4,415.9,617.7,415.9z M440.2,693.3
		c18.1,0.1,33.2-14.8,33.3-33c0.1-17.9-14.9-33.1-32.8-33.2c-18.2-0.1-33.2,14.7-33.3,32.9C407.3,678.3,421.9,693.2,440.2,693.3z
		 M824.3,477.6c0-12.7-10.1-22.9-22.6-23.1c-12.5-0.1-22.9,10.2-22.9,22.7c0,12.8,10.1,23.2,22.8,23.2
		C813.9,500.5,824.2,490.2,824.3,477.6z M681.4,552.6c0-12-9.8-21.7-21.8-21.6c-11.7,0.1-21.5,10-21.5,21.7
		c0,11.8,10,21.6,21.9,21.5C671.9,574.2,681.5,564.4,681.4,552.6z"/>
	<path class="st1" d="M1470.6,640.7c0-5.5,0-11,0-16.6c21.6,0,43,0,64.6,0c0,60.9,0,121.8,0,182.8c-21.5,0-42.9,0-64.7,0
		c0-6.7,0-13.2,0-20.3c-3.2,3.6-5.7,7-8.7,9.9c-9.9,9.4-22.1,14-35.4,15.7c-25.4,3.2-48.8-2.1-68.7-18.9
		c-20.6-17.3-32.4-39.5-35-66.3c-2.7-28.4,3.5-54.3,21.9-76.7c16.5-20.1,37.7-31,63.7-32.3c16.9-0.8,33.1,1.6,47.5,11
		C1461.1,632.3,1465.6,636.6,1470.6,640.7z M1472.6,715.8c-0.1-2.2-0.1-4.5-0.5-6.7c-4.9-31.2-41.4-46.1-66.7-27
		c-14.5,11-18.3,26.3-15.1,43.6c2.8,14.9,14.8,28.7,34.8,30.7C1457.2,759.6,1473.1,737.7,1472.6,715.8z"/>
	<path class="st1" d="M1151.2,726.5c-45.4,0-90.6,0-135.7,0c-3.5,14.9,7.3,33.2,22.6,37.9c11.4,3.5,22.9,4.1,34.2-0.9
		c5.5-2.4,9.7-6.6,13.2-11.4c0.6-0.9,1.9-1.8,2.9-1.8c19.9-0.1,39.8-0.1,59.7,0c0.2,0,0.4,0.1,1.4,0.3c-2,5.3-3.6,10.7-6,15.7
		c-8.8,18.9-24.1,30.7-42.9,38.5c-17.4,7.2-35.5,9.2-54.1,8.1c-19-1.2-37.1-5.6-53.6-15.6c-24.2-14.8-38-36.4-41.6-64.5
		c-2.4-18.8-1.5-37.4,5.1-55.4c9.5-25.8,27.7-43.2,53.3-52.4c26.9-9.7,54.5-9.9,81.6-0.9c30.2,10,48.3,31.8,56.5,62.2
		c3.4,12.6,4.1,25.5,3.9,38.5C1151.5,725.2,1151.3,725.6,1151.2,726.5z M1090.9,688.8c-2.1-17.2-20.6-30.2-40.3-28.6
		c-18.6,1.5-32.6,13.6-33.9,28.6C1041.4,688.8,1066.1,688.8,1090.9,688.8z"/>
	<path class="st0" d="M924.2,806.8c-21.7,0-43,0-64.6,0c0-1.3,0-2.5,0-3.6c0-34.1,0-68.3-0.1-102.4c0-7-1.4-13.8-5.3-19.9
		c-4.8-7.5-12.3-10.4-20.7-11.1c-15-1.2-29,4.1-34.1,21.4c-1.6,5.3-2.7,10.9-2.8,16.4c-0.3,31.8-0.2,63.6-0.2,95.4
		c0,1.2,0,2.3,0,3.8c-21.5,0-42.9,0-64.4,0c0-60.8,0-121.5,0-182.3c21.5,0,42.8,0,64.5,0c0,7.7,0,15.3,0,22.9
		c0.2,0.1,0.4,0.2,0.7,0.2c0.6-0.7,1.1-1.4,1.7-2.2c12.5-17,29.4-25.6,50.2-27c11.7-0.8,23.3,0.1,34.5,3.8
		c19.3,6.4,30.4,20.5,36.4,39.3c3,9.5,4.3,19.3,4.3,29.3c0,37.6,0,75.1,0,112.7C924.2,804.5,924.2,805.5,924.2,806.8z"/>
	<path class="st1" d="M1314.6,621.5c0,20.8,0,41.3,0,61.5c-5.6-1.5-11.2-3.4-16.9-4.4c-8.8-1.5-17.6-1.1-26.2,1
		c-11,2.7-18.7,9.3-23.2,19.8c-4.7,11.1-5.9,22.7-5.9,34.5c-0.1,23,0,46.1,0,69.2c0,1.2,0,2.3,0,3.7c-21.6,0-43,0-64.7,0
		c0-60.8,0-121.7,0-182.8c21.4,0,42.9,0,64.7,0c0,9.8,0,19.6,0,29.9c0.7-0.6,1-0.8,1.2-1.1c12-20.6,30.4-30.3,53.8-31.4
		C1303,621.3,1308.7,621.5,1314.6,621.5z"/>
	<path class="st0" d="M627.8,624.3c21.6,0,42.8,0,64.3,0c0,60.8,0,121.5,0,182.4c-21.3,0-42.7,0-64.3,0
		C627.8,745.9,627.8,685.2,627.8,624.3z"/>
</g>
</svg>
