<?xml version="1.0" encoding="UTF-8" standalone="no"?>
<!-- Created with Inkscape (http://www.inkscape.org/) -->

<svg
   width="610.53003mm"
   height="150.64999mm"
   viewBox="0 0 610.53003 150.64999"
   version="1.1"
   id="svg5"
   inkscape:version="1.1.2 (b8e25be833, 2022-02-05)"
   sodipodi:docname="soluxioni.svg"
   xmlns:inkscape="http://www.inkscape.org/namespaces/inkscape"
   xmlns:sodipodi="http://sodipodi.sourceforge.net/DTD/sodipodi-0.dtd"
   xmlns="http://www.w3.org/2000/svg"
   xmlns:svg="http://www.w3.org/2000/svg">
  <sodipodi:namedview
     id="namedview7"
     pagecolor="#ffffff"
     bordercolor="#666666"
     borderopacity="1.0"
     inkscape:pageshadow="2"
     inkscape:pageopacity="0.0"
     inkscape:pagecheckerboard="0"
     inkscape:document-units="mm"
     showgrid="false"
     inkscape:zoom="0.14365004"
     inkscape:cx="-1148.6248"
     inkscape:cy="1444.4827"
     inkscape:window-width="1536"
     inkscape:window-height="890"
     inkscape:window-x="-6"
     inkscape:window-y="-6"
     inkscape:window-maximized="1"
     inkscape:current-layer="layer1" />
  <defs
     id="defs2">
    <clipPath
       clipPathUnits="userSpaceOnUse"
       id="clipPath842">
      <path
         d="M 0,566.929 H 1999.502 V 0 H 0 Z"
         id="path840" />
    </clipPath>
  </defs>
  <g
     inkscape:label="Livello 1"
     inkscape:groupmode="layer"
     id="layer1">
    <g
       id="g830"
       inkscape:label="LOGO_SOLUXIONI_COLORI_2021"
       transform="matrix(0.35277777,0,0,-0.35277777,-47.363591,175.32512)">
      <g
         id="g832"
         transform="translate(480.2193,496.9836)">
        <path
           d="M 0,0 V 0.001 Z"
           style="fill:#5c8bce;fill-opacity:1;fill-rule:nonzero;stroke:none"
           id="path834" />
      </g>
      <g
         id="g836">
        <g
           id="g838"
           clip-path="url(#clipPath842)">
          <g
             id="g844"
             transform="translate(669.5707,239.4733)">
            <path
               d="m 0,0 c 0,-4.74 0.377,-9.052 1.137,-12.934 0.755,-3.888 2.177,-7.157 4.264,-9.809 2.084,-2.656 4.878,-4.739 8.387,-6.253 3.505,-1.52 7.911,-2.275 13.219,-2.275 6.254,0 11.891,2.034 16.915,6.113 5.02,4.073 7.534,10.375 7.534,18.904 0,4.548 -0.618,8.479 -1.849,11.798 -1.234,3.313 -3.269,6.298 -6.112,8.955 -2.843,2.651 -6.587,5.068 -11.229,7.249 -4.646,2.177 -10.376,4.406 -17.199,6.68 -9.097,3.03 -16.964,6.348 -23.596,9.95 -6.636,3.598 -12.179,7.818 -16.63,12.651 -4.456,4.833 -7.725,10.421 -9.808,16.773 -2.088,6.348 -3.128,13.69 -3.128,22.032 0,20.087 5.589,35.06 16.773,44.917 11.181,9.852 26.532,14.783 46.054,14.783 9.098,0 17.484,-0.995 25.16,-2.985 7.676,-1.991 14.308,-5.215 19.9,-9.666 5.588,-4.456 9.95,-10.141 13.077,-17.056 3.127,-6.921 4.691,-15.21 4.691,-24.875 V 89.266 H 48.328 c 0,9.665 -1.706,17.101 -5.117,22.316 -3.412,5.211 -9.097,7.818 -17.057,7.818 -4.548,0 -8.342,-0.666 -11.371,-1.99 -3.035,-1.328 -5.451,-3.083 -7.25,-5.259 C 5.73,109.969 4.5,107.459 3.838,104.617 3.171,101.773 2.843,98.833 2.843,95.804 2.843,89.549 4.166,84.29 6.823,80.026 9.474,75.762 15.16,71.827 23.88,68.229 L 55.435,54.582 c 7.769,-3.411 14.117,-6.964 19.047,-10.66 4.926,-3.696 8.857,-7.676 11.798,-11.94 2.936,-4.264 4.975,-8.955 6.112,-14.072 1.137,-5.117 1.706,-10.802 1.706,-17.057 0,-21.419 -6.21,-37.006 -18.62,-46.765 -12.416,-9.764 -29.708,-14.64 -51.882,-14.64 -23.125,0 -39.658,5.019 -49.608,15.067 -9.95,10.043 -14.925,24.448 -14.925,43.211 V 5.97 H 0 Z"
               style="fill:#5c646d;fill-opacity:1;fill-rule:nonzero;stroke:none"
               id="path846" />
          </g>
          <g
             id="g848"
             transform="translate(821.8047,248.712)">
            <path
               d="m 0,0 c 0.661,-9.572 1.99,-17.341 3.98,-23.311 1.989,-5.97 4.832,-10.332 8.528,-13.077 3.696,-2.749 8.573,-4.122 14.641,-4.122 6.063,0 10.945,1.373 14.64,4.122 3.696,2.745 6.539,7.107 8.529,13.077 1.99,5.97 3.314,13.739 3.98,23.311 0.662,9.568 0.995,21.18 0.995,34.825 0,13.646 -0.333,25.204 -0.995,34.683 -0.666,9.475 -1.99,17.244 -3.98,23.312 -1.99,6.063 -4.833,10.469 -8.529,13.218 -3.695,2.746 -8.577,4.123 -14.64,4.123 -6.068,0 -10.945,-1.377 -14.641,-4.123 C 8.812,103.289 5.969,98.883 3.98,92.82 1.99,86.752 0.661,78.983 0,69.508 -0.667,60.029 -0.996,48.471 -0.996,34.825 -0.996,21.18 -0.667,9.568 0,0 m -39.8,77.326 c 1.421,12.98 4.548,24.116 9.381,33.404 4.833,9.283 11.798,16.532 20.895,21.747 9.097,5.211 21.321,7.818 36.673,7.818 15.351,0 27.575,-2.607 36.672,-7.818 9.098,-5.215 16.062,-12.464 20.896,-21.747 4.832,-9.288 7.959,-20.424 9.381,-33.404 C 95.519,64.342 96.23,50.177 96.23,34.825 96.23,19.282 95.519,5.069 94.098,-7.817 92.676,-20.707 89.549,-31.795 84.717,-41.079 79.883,-50.367 72.919,-57.474 63.821,-62.4 54.724,-67.326 42.5,-69.791 27.149,-69.791 c -15.352,0 -27.576,2.465 -36.673,7.391 -9.097,4.926 -16.062,12.033 -20.895,21.321 -4.833,9.284 -7.96,20.372 -9.381,33.262 -1.422,12.886 -2.133,27.099 -2.133,42.642 0,15.352 0.711,29.517 2.133,42.501"
               style="fill:#5c646d;fill-opacity:1;fill-rule:nonzero;stroke:none"
               id="path850" />
          </g>
          <g
             id="g852"
             transform="translate(942.1989,385.0275)">
            <path
               d="m 0,0 h 40.937 v -169.434 h 72.493 v -33.545 H 0 Z"
               style="fill:#5c646d;fill-opacity:1;fill-rule:nonzero;stroke:none"
               id="path854" />
          </g>
          <g
             id="g856"
             transform="translate(1112.1998,243.453)">
            <path
               d="m 0,0 c 0,-5.117 0.329,-9.807 0.996,-14.072 0.661,-4.265 1.892,-7.959 3.695,-11.086 1.799,-3.127 4.264,-5.593 7.391,-7.392 3.127,-1.804 7.059,-2.701 11.799,-2.701 4.924,0 8.906,0.897 11.939,2.701 3.029,1.799 5.445,4.265 7.25,7.392 1.798,3.127 3.028,6.821 3.695,11.086 C 47.427,-9.807 47.76,-5.117 47.76,0 V 141.574 H 88.696 V 0 c 0,-12.89 -1.802,-23.551 -5.401,-31.982 -3.602,-8.434 -8.434,-15.116 -14.498,-20.042 -6.067,-4.93 -12.983,-8.244 -20.752,-9.95 -7.775,-1.705 -15.828,-2.558 -24.164,-2.558 -8.343,0 -16.396,0.759 -24.165,2.274 -7.773,1.515 -14.69,4.593 -20.754,9.239 -6.066,4.642 -10.899,11.23 -14.498,19.758 -3.602,8.529 -5.401,19.616 -5.401,33.261 V 141.574 H 0 Z"
               style="fill:#5c646d;fill-opacity:1;fill-rule:nonzero;stroke:none"
               id="path858" />
          </g>
          <g
             id="g860"
             transform="translate(1224.5397,385.0275)">
            <path
               d="M 0,0 H 51.741 L 90.829,-64.818 132.761,0 h 48.898 l -65.101,-96.941 70.786,-106.038 h -53.162 l -43.353,70.218 -46.196,-70.218 H -5.401 l 70.788,106.322 z"
               style="fill:#5c8bce;fill-opacity:1;fill-rule:nonzero;stroke:none"
               id="path862" />
          </g>
          <path
             d="m 1429.375,385.027 h 40.937 V 182.048 h -40.937 z"
             style="fill:#5c646d;fill-opacity:1;fill-rule:nonzero;stroke:none"
             id="path864" />
          <g
             id="g866"
             transform="translate(1538.3956,248.712)">
            <path
               d="m 0,0 c 0.663,-9.572 1.991,-17.341 3.981,-23.311 1.99,-5.97 4.832,-10.332 8.528,-13.077 3.696,-2.749 8.574,-4.122 14.641,-4.122 6.063,0 10.945,1.373 14.641,4.122 3.695,2.745 6.538,7.107 8.529,13.077 1.989,5.97 3.313,13.739 3.98,23.311 0.66,9.568 0.995,21.18 0.995,34.825 0,13.646 -0.335,25.204 -0.995,34.683 -0.667,9.475 -1.991,17.244 -3.98,23.312 -1.991,6.063 -4.834,10.469 -8.529,13.218 -3.696,2.746 -8.578,4.123 -14.641,4.123 -6.067,0 -10.945,-1.377 -14.641,-4.123 C 8.813,103.289 5.971,98.883 3.981,92.82 1.991,86.752 0.663,78.983 0,69.508 -0.665,60.029 -0.994,48.471 -0.994,34.825 -0.994,21.18 -0.665,9.568 0,0 m -39.799,77.326 c 1.421,12.98 4.549,24.116 9.382,33.404 4.832,9.283 11.798,16.532 20.894,21.747 9.097,5.211 21.322,7.818 36.673,7.818 15.352,0 27.576,-2.607 36.673,-7.818 9.097,-5.215 16.062,-12.464 20.895,-21.747 4.833,-9.288 7.96,-20.424 9.381,-33.404 1.421,-12.984 2.133,-27.149 2.133,-42.501 0,-15.543 -0.712,-29.756 -2.133,-42.642 -1.421,-12.89 -4.548,-23.978 -9.381,-33.262 -4.833,-9.288 -11.798,-16.395 -20.895,-21.321 -9.097,-4.926 -21.321,-7.391 -36.673,-7.391 -15.351,0 -27.576,2.465 -36.673,7.391 -9.096,4.926 -16.062,12.033 -20.894,21.321 -4.833,9.284 -7.961,20.372 -9.382,33.262 -1.421,12.886 -2.132,27.099 -2.132,42.642 0,15.352 0.711,29.517 2.132,42.501"
               style="fill:#5c646d;fill-opacity:1;fill-rule:nonzero;stroke:none"
               id="path868" />
          </g>
          <g
             id="g870"
             transform="translate(1755.4485,246.0117)">
            <path
               d="M 0,0 H 0.568 V 139.016 H 38.093 V -63.964 H -8.529 L -58.563,78.179 h -0.569 V -63.964 h -37.525 v 202.98 h 47.191 z"
               style="fill:#5c646d;fill-opacity:1;fill-rule:nonzero;stroke:none"
               id="path872" />
          </g>
          <path
             d="m 1823.958,385.027 h 40.937 V 182.048 h -40.937 z"
             style="fill:#5c646d;fill-opacity:1;fill-rule:nonzero;stroke:none"
             id="path874" />
          <g
             id="g876"
             transform="translate(433.3558,377.4174)">
            <path
               d="m 0,0 -17.953,-26.733 h 4.714 c 64.422,-6.915 112.835,-60.779 112.835,-125.826 0,-69.79 -56.777,-126.567 -126.567,-126.567 H -187.02 l -18.649,-28.347 h 178.698 c 85.556,0 154.914,69.357 154.914,154.914 C 127.943,-76.204 72.697,-12.764 0,0"
               style="fill:#8fa4ba;fill-opacity:1;fill-rule:nonzero;stroke:none"
               id="path878" />
          </g>
          <g
             id="g880"
             transform="translate(257.038,190.5068)">
            <path
               d="M 0,0 65.156,97.864 -0.23,194.521 H 51.51 L 90.599,129.703 204.956,306.477 H 32.135 c -85.556,0 -154.914,-69.357 -154.914,-154.914 C -122.779,77.026 -70.133,14.796 0,0"
               style="fill:#5c8bce;fill-opacity:1;fill-rule:nonzero;stroke:none"
               id="path882" />
          </g>
          <g
             id="g884"
             transform="translate(406.3847,98.291)">
            <path
               d="m 0,0 c 69.79,0 126.567,56.777 126.567,126.567 0,65.047 -48.413,118.912 -112.835,125.827 H 9.019 L -33.02,189.795 37.767,83.757 H -15.396 L -58.748,153.976 -104.945,83.757 -160.049,0 Z"
               style="fill:#5c646d;fill-opacity:1;fill-rule:nonzero;stroke:none"
               id="path886" />
          </g>
        </g>
      </g>
    </g>
  </g>
</svg>
